<?xml version="1.0" standalone="no"?>
<!DOCTYPE svg PUBLIC "-//W3C//DTD SVG 1.1//EN" "http://www.w3.org/Graphics/SVG/1.1/DTD/svg11.dtd" >
<svg xmlns="http://www.w3.org/2000/svg">
<metadata></metadata>
<defs>
<font id="palladio_fsregular" horiz-adv-x="509" >
<font-face units-per-em="1000" ascent="725" descent="-275" />
<missing-glyph horiz-adv-x="250" />
<glyph unicode="&#xfb01;" horiz-adv-x="556" d="M23 -3v28q48 2 58.5 5t14.5 19q7 30 7 275q0 18 -1 46l-65 -4v20l65 28v30q0 77 7.5 104.5t36.5 59.5q52 56 79.5 75.5t54.5 19.5q21 0 52 -10l-3 -90l-14 -2q-35 39 -73 39q-26 0 -39.5 -19t-17.5 -62q-1 -18 -1 -141h25q98 0 148.5 7.5t108.5 30.5l8 -7 q-4 -111 -4 -246q0 -138 6 -156q3 -10 13.5 -14t37.5 -6l16 -1v-29q-83 4 -116 4q-21 0 -114 -3v27l15 1q35 2 44.5 5.5t11.5 15.5q5 20 5 188q0 100 -5 117.5t-33 17.5q-9 0 -37 1t-43 1q-13 0 -87 -2q-1 -38 -1 -71v-51q0 -32 0.5 -69.5t0.5 -43.5q0 -86 8 -95 q7 -9 57 -14q1 0 5 -0.5t10 -1.5t11 -1v-25h-26l-101 2zM374 609q0 22 15.5 37.5t37.5 15.5q21 0 36.5 -15.5t15.5 -37.5t-15.5 -37t-37.5 -15q-21 0 -36.5 15.5t-15.5 36.5z" />
<glyph unicode="&#xfb02;" horiz-adv-x="560" d="M23 -3v28q48 2 58.5 5t14.5 19q7 30 7 275q0 18 -1 46l-65 -4v20l65 28v30q0 77 7.5 104.5t36.5 59.5q52 56 79.5 75.5t54.5 19.5q21 0 52 -10l-1 -26q81 8 140 35l7 -5q-6 -88 -6 -417q0 -205 5 -233q2 -13 10 -16t57 -7v-28q-59 5 -116 5q-52 0 -111 -4v27l10 1 q50 5 55 9q1 1 2 3q7 11 7 289q0 282 -2 290q-2 14 -11.5 17t-47.5 4l-1 -34l-14 -2q-35 39 -73 39q-26 0 -39.5 -19t-17.5 -62q-1 -18 -1 -141h19q33 0 97 4l4 -3q-6 -35 -8 -47q-25 1 -55 1q-32 0 -57 -1q-1 -38 -1 -73v-51q0 -32 0.5 -69.5t0.5 -43.5q0 -86 8 -95 q7 -9 57 -14q1 0 5 -0.5t10 -1.5t11 -1v-25h-26l-101 2z" />
<glyph unicode="&#xfb03;" horiz-adv-x="842" d="M23 -3v28q48 2 58.5 5t14.5 19q7 30 7 275q0 18 -1 46l-65 -4v20l65 28v30q0 77 7.5 104.5t36.5 59.5q52 56 79.5 75.5t54.5 19.5q21 0 52 -10l-3 -90l-13 -2q-36 39 -74 39q-26 0 -39.5 -19t-17.5 -62q-1 -18 -1 -141l102 -1l102 1v27q0 79 8 105.5t42 63.5q46 51 74 70 t54 19q21 0 52 -10l-3 -90l-14 -2q-35 39 -71 39q-22 0 -37 -15.5t-19 -41.5q-4 -27 -4 -165h25q98 0 148.5 7.5t108.5 30.5l8 -7q-4 -111 -4 -246q0 -138 6 -156q3 -10 13.5 -14t37.5 -6l16 -1v-29q-83 4 -116 4q-21 0 -114 -3v27l15 1q35 2 44 5.5t12 15.5q5 20 5 188 q0 100 -5 117.5t-33 17.5q-9 0 -37 1t-43 1q-13 0 -87 -2q-1 -35 -1 -71v-51q0 -32 0.5 -70t0.5 -43q0 -86 8 -95q7 -9 57 -14q1 0 5.5 -0.5t10.5 -1.5t10 -1v-25h-26l-101 2q-29 0 -125 -3v28q49 2 59.5 5t13.5 19q7 32 7 275q0 27 -1 48q-59 1 -109 1q-38 0 -95 -1 q-1 -38 -1 -73v-51q0 -32 0.5 -69.5t0.5 -43.5q0 -86 8 -95q7 -9 57 -14q1 0 5 -0.5t10 -1.5t11 -1v-25h-26l-101 2zM660 609q0 22 15.5 37.5t37.5 15.5q21 0 36.5 -15.5t15.5 -37.5t-15.5 -37t-37.5 -15q-21 0 -36.5 15.5t-15.5 36.5z" />
<glyph unicode="&#xfb04;" horiz-adv-x="846" d="M23 -3v28q48 2 58.5 5t14.5 19q7 30 7 275q0 18 -1 46l-65 -4v20l65 28v30q0 77 7.5 104.5t36.5 59.5q52 56 79.5 75.5t54.5 19.5q21 0 52 -10l-3 -90l-13 -2q-36 39 -74 39q-26 0 -39.5 -19t-17.5 -62q-1 -18 -1 -141l102 -1l102 1v27q0 82 8.5 108.5t49.5 68.5 q46 48 70 64.5t49 16.5q22 0 53 -10l-1 -26q81 8 140 35l7 -5q-6 -88 -6 -417q0 -205 5 -233q1 -13 9.5 -16t57.5 -7v-28q-59 5 -116 5q-52 0 -111 -4v27l10 1q50 5 55 9q1 1 2 3q7 11 7 289q0 282 -2 290q-2 14 -11.5 17t-47.5 4l-1 -34l-14 -2q-35 39 -73 39 q-52 0 -57 -79q-1 -24 -1 -143h19q33 0 97 4l4 -3q-6 -35 -8 -47q-25 1 -55 1q-32 0 -57 -1q-1 -35 -1 -73v-51q0 -32 0.5 -70t0.5 -43q0 -86 8 -95q7 -9 57 -14q1 0 5.5 -0.5t10.5 -1.5t10 -1v-25h-26l-101 2q-29 0 -125 -3v28q49 2 59.5 5t13.5 19q7 30 7 273q0 20 -1 50 q-60 1 -109 1q-38 0 -95 -1q-1 -38 -1 -73v-51q0 -32 0.5 -69.5t0.5 -43.5q0 -86 8 -95q7 -9 57 -14q1 0 5 -0.5t10 -1.5t11 -1v-25h-26l-101 2z" />
<glyph horiz-adv-x="1000" />
<glyph horiz-adv-x="1000" />
<glyph unicode="&#xd;" horiz-adv-x="1000" />
<glyph unicode=" "  horiz-adv-x="250" />
<glyph unicode="&#x09;" horiz-adv-x="250" />
<glyph unicode="&#xa0;" horiz-adv-x="250" />
<glyph unicode="!" horiz-adv-x="261" d="M78 44q0 23 15 39.5t37 16.5q21 0 36 -16.5t15 -39.5t-15 -39t-37 -16q-20 0 -35.5 16.5t-15.5 38.5zM86 566q0 26 2 64q34 23 67 37h28q0 -32 -20 -293q-6 -84 -10 -175l-27 -25l-9 4q-1 8 -16 181t-15 207z" />
<glyph unicode="&#x22;" horiz-adv-x="332" d="M48 618q0 27 13 43t34 16q47 0 47 -71q0 -15 -2 -33l-23 -154h-45l-21 158q-3 30 -3 41zM190 618q0 27 13 43t35 16q47 0 47 -71q0 -10 -3 -33l-22 -154h-46l-21 158q-3 21 -3 41z" />
<glyph unicode="#" d="M56 158l12 60h79l52 253h-84l12 60h84l28 136h33l-27 -136h97l28 136h33l-27 -136h75l-12 -60h-76l-51 -253h80l-13 -60h-80l-32 -158h-33l32 158h-97l-33 -158h-33l32 158h-79zM181 218h97l52 253h-98z" />
<glyph unicode="$" d="M43 37q12 60 16 147h30q0 -46 1 -68q1 -28 45 -54.5t91 -26.5v274q-62 15 -105 38q-75 42 -75 136q0 99 80 149q40 23 100 30l-2 63h39q-2 -29 -2 -62q90 -1 160 -33q-17 -50 -18 -130h-29q-4 68 -9 79q-10 23 -38 36t-66 13v-242q63 -14 108 -30q96 -36 96 -146 q0 -49 -23.5 -92.5t-64.5 -71.5q-48 -31 -116 -44v-38q0 -4 2 -60h-40q4 84 4 96q-109 1 -184 37zM121 509q0 -46 23.5 -72t81.5 -44v234q-105 -20 -105 -118zM261 38q119 23 119 141q0 53 -26 80t-93 43v-264z" />
<glyph unicode="%" horiz-adv-x="706" d="M37 512q0 79 43.5 123t120.5 44q67 0 106 -40t39 -108q0 -76 -44 -122.5t-115 -46.5q-68 0 -109 41t-41 109zM110 516q0 -61 21.5 -95.5t59.5 -34.5t59.5 37t21.5 102q0 132 -77 132q-40 0 -62.5 -37t-22.5 -104zM147 -32q19 34 30 56l312 624q7 15 19 51q21 -3 29 -3 q10 0 17 1q-18 -30 -28 -51l-316 -633q-13 -26 -21 -45q-9 1 -20 1q-12 0 -22 -1zM360 137q0 79 43.5 123.5t120.5 44.5q67 0 106 -40.5t39 -108.5q0 -76 -44 -122.5t-115 -46.5q-68 0 -109 41t-41 109zM433 141q0 -61 21.5 -95.5t59.5 -34.5t59.5 37.5t21.5 102.5 q0 42 -9 71.5t-26 45t-42 15.5q-40 0 -62.5 -37t-22.5 -105z" />
<glyph unicode="&#x26;" horiz-adv-x="728" d="M45 180q0 66 44 121q19 24 77 65l25 17q-29 70 -29 120q0 76 69 131q54 44 108 44q42 0 71.5 -30t29.5 -73q0 -48 -43 -91q-18 -19 -100 -70l-30 -19q32 -65 88 -137.5t104 -112.5q26 32 35 56t9 60q0 61 -33 71q-15 4 -57 4h-10l-3 7q4 6 27 44q48 -4 89 -4q79 0 183 8 l-4 -26q-6 -37 -7 -45q-49 9 -131 11q5 -23 5 -42q0 -41 -21.5 -85.5t-57.5 -79.5q84 -62 166 -62q17 0 53 19l7 -23q-59 -45 -78 -64q-20 -4 -35 -4q-76 0 -168 74q-101 -73 -184 -73t-141 55t-58 134zM128 215q0 -70 46.5 -119t111.5 -49q53 0 116 41q-108 99 -197 264 q-41 -32 -59 -63.5t-18 -73.5zM229 543q0 -50 25 -122q46 26 78 68t32 78q0 28 -18.5 47t-44.5 19q-32 0 -52 -25t-20 -65z" />
<glyph unicode="'" horiz-adv-x="190" d="M48 618q0 27 13 43t34 16q47 0 47 -71q0 -15 -2 -33l-23 -154h-45l-21 158q-3 30 -3 41z" />
<glyph unicode="(" horiz-adv-x="304" d="M78 268q0 147 77 303q46 94 123 172l16 -21q-59 -87 -91 -181q-46 -136 -46 -273t46 -273q32 -93 91 -181l-16 -20q-75 75 -123 171q-77 156 -77 303z" />
<glyph unicode=")" horiz-adv-x="304" d="M11 -186q59 88 91 181q46 136 46 273t-46 273q-32 94 -91 181l16 21q77 -78 123 -172q77 -156 77 -303q0 -146 -77 -303q-48 -96 -123 -171z" />
<glyph unicode="*" horiz-adv-x="433" d="M61 471l4 6q43 15 121 51l-125 63v7q16 23 35 57h17q46 -56 88 -100l22 136l5 5q33 -11 62 -18l3 -16q-35 -54 -66 -118l129 23l7 -4q3 -26 10 -63l-10 -9q-52 11 -136 25l63 -119v-9q-21 -11 -56 -31l-16 4q-7 63 -17 141l-94 -94l-18 3q-13 31 -28 60z" />
<glyph unicode="+" d="M38 302v59h185v174h63v-174h185v-59h-185v-173h-63v173h-185z" />
<glyph unicode="," horiz-adv-x="268" d="M23 -130q43 75 61 123t25 108q55 13 96 30l6 -15q-46 -120 -134 -236l-40 -21z" />
<glyph unicode="-" horiz-adv-x="282" d="M0 203q15 37 24 68q72 -3 114 -3q30 0 140 3l4 -7q-16 -35 -23 -68q-65 4 -119 4q-55 0 -134 -4z" />
<glyph unicode="." horiz-adv-x="268" d="M79 44q0 23 16.5 39.5t39.5 16.5t39 -16.5t16 -39.5t-16.5 -39t-39.5 -16q-22 0 -38.5 16.5t-16.5 38.5z" />
<glyph unicode="/" horiz-adv-x="383" d="M-41 -175l18 42l22 55q22 52 141 339.5t182 440.5q20 -2 23 -2t25 2q-63 -153 -182 -439.5t-141 -340.5l-26 -63q-6 -13 -14 -34q-20 2 -23 2t-25 -2z" />
<glyph unicode="0" d="M48 315q0 362 215 362q102 0 150 -80.5t48 -250.5q0 -179 -54 -271q-24 -40 -66.5 -62.5t-93.5 -22.5q-59 0 -103 28t-65 80q-31 76 -31 217zM133 328q0 -307 129 -307q116 0 116 300q0 321 -127 321q-63 0 -90.5 -73.5t-27.5 -240.5z" />
<glyph unicode="1" d="M49 572q159 48 251 101l10 -8q-6 -88 -6 -316q0 -212 2.5 -255.5t14.5 -52.5q14 -12 100 -14v-31q-111 4 -160 4q-38 0 -162 -4v31q74 3 92 7.5t23 23.5q10 32 10 477q0 38 -1.5 47t-8.5 9q-16 0 -157 -76z" />
<glyph unicode="2" d="M38 -5v27l170 185q78 85 109 140.5t31 111.5q0 64 -37 104t-95 40q-46 0 -81 -24q-22 -14 -36 -68l-11 -38h-28l5 38q9 71 11 93q62 73 164 73q89 0 142 -51t53 -137q0 -57 -27 -108.5t-94 -120.5l-176 -182h81q176 0 251 7q-4 -27 -4 -46q0 -15 3 -45q-79 6 -183 6 q-136 0 -248 -5z" />
<glyph unicode="3" d="M33 154l24 11q32 -68 50 -90q38 -46 109 -46q66 0 104.5 44.5t38.5 121.5q0 65 -31.5 102.5t-86.5 37.5q-35 0 -82 -18l-6 5l6 47q21 -2 39 -2q54 0 86.5 34.5t32.5 92.5q0 54 -29.5 84t-82.5 30q-45 0 -82 -24q-12 -8 -20 -23t-20 -51l-6 -19h-28l3 13q9 45 21 102 q65 71 158 71q73 0 119 -40.5t46 -104.5q0 -87 -102 -158q155 -9 155 -151q0 -97 -74.5 -165t-179.5 -68q-54 0 -132 22q-5 58 -30 142z" />
<glyph unicode="4" d="M20 199q90 163 264 447l68 27l10 -6q-4 -167 -4 -251q0 -75 1 -182q44 0 102 6q-3 -22 -3 -34q0 -15 4 -36q-72 4 -103 5q0 -109 5 -124q2 -14 22 -19.5t75 -6.5v-30q-105 5 -146 5q-43 0 -152 -5v30q66 3 85 6.5t22 14.5q8 17 8 129h-25q-163 0 -225 -5zM82 234 q39 -2 102 -2q27 0 95 2v338q-76 -114 -197 -338z" />
<glyph unicode="5" d="M34 152l23 9q36 -73 70 -100t89 -27q70 0 109 46t39 127q0 77 -38.5 122t-103.5 45q-37 0 -63.5 -14.5t-52.5 -48.5l-21 7q6 100 6 205q0 76 -6 143l8 7q72 -9 143 -9q86 0 186 9q-5 -32 -5 -44q0 -18 4 -43q-45 3 -119 3q-90 0 -170 -2l-9 -201q61 53 138 53 q84 0 135.5 -53t51.5 -139q0 -112 -77.5 -184.5t-197.5 -72.5q-55 0 -110 20q-12 70 -29 142z" />
<glyph unicode="6" d="M51 248q0 206 147 336q100 87 215 100l23 -19l-1 -8q-112 -5 -197 -101.5t-93 -226.5l59 46q37 30 90 30q78 0 121.5 -50.5t43.5 -140.5q0 -103 -57 -163.5t-153 -60.5q-93 0 -145.5 68.5t-52.5 189.5zM139 216q0 -92 31 -143.5t87 -51.5q53 0 86.5 46.5t33.5 119.5 q0 74 -33 118.5t-88 44.5q-65 0 -107 -65q-10 -16 -10 -69z" />
<glyph unicode="7" d="M61 662l9 9q70 -7 173 -7q148 0 244 9v-29q-114 -205 -203.5 -388.5t-112.5 -258.5q-25 3 -39 3q-18 0 -42 -4l-10 13q269 444 336 581q-92 0 -227 -3q-48 -1 -59 -3t-19 -11q-10 -13 -15 -75q-1 -5 -3 -35h-30q3 57 3 110q0 47 -5 89z" />
<glyph unicode="8" d="M41 163q0 62 34.5 105.5t108.5 75.5q-62 34 -89 71.5t-27 89.5q0 75 54.5 123.5t137.5 48.5q74 0 120 -38t46 -99q0 -49 -29 -87.5t-91 -73.5q85 -37 117 -75t32 -100q0 -89 -65.5 -151.5t-158.5 -62.5q-82 0 -136 49.5t-54 123.5zM114 169q0 -66 35 -105.5t93 -39.5 q57 0 97.5 40t40.5 97q0 54 -36 89t-134 78q-4 -3 -12 -7q-84 -47 -84 -152zM139 538q0 -46 26.5 -74t113.5 -72q43 31 61 61t18 74q0 56 -28.5 88t-78.5 32q-49 0 -80.5 -31t-31.5 -78z" />
<glyph unicode="9" d="M46 453q0 100 58 162t151 62q97 0 153 -65q55 -62 55 -183q0 -176 -98 -296.5t-267 -151.5l-41 21v9q125 8 212.5 100.5t95.5 225.5l-68 -57q-30 -26 -83 -26q-73 0 -120.5 56t-47.5 143zM131 480q0 -78 32.5 -123t88.5 -45t87.5 41t31.5 115q0 78 -34 126.5t-89 48.5 q-53 0 -85 -45t-32 -118z" />
<glyph unicode=":" horiz-adv-x="268" d="M79 44q0 23 16.5 39.5t39.5 16.5t39 -16.5t16 -39.5t-16.5 -39t-39.5 -16q-22 0 -38.5 16.5t-16.5 38.5zM79 399q0 23 16.5 39.5t39.5 16.5t39 -16.5t16 -39.5t-16.5 -39t-39.5 -16q-22 0 -38.5 16t-16.5 39z" />
<glyph unicode=";" horiz-adv-x="268" d="M23 -130q43 75 61 123t25 108q55 13 96 30l6 -15q-46 -120 -134 -236l-40 -21zM98 397q0 23 15.5 39t38.5 16q22 0 38 -16t16 -38q0 -23 -16 -38.5t-39 -15.5q-21 0 -37 16t-16 37z" />
<glyph unicode="&#x3c;" horiz-adv-x="513" d="M14 204v35l462 182l23 -36l-411 -164l411 -163l-34 -39z" />
<glyph unicode="=" d="M38 230v56h433v-56h-433zM38 379v56h433v-56h-433z" />
<glyph unicode="&#x3e;" horiz-adv-x="513" d="M14 55l411 162l-411 164l23 37l462 -182v-35l-451 -186z" />
<glyph unicode="?" horiz-adv-x="414" d="M44 528l39 119q55 34 115 34q73 0 122.5 -44.5t49.5 -109.5q0 -66 -42 -117q-17 -20 -88 -88q-56 -53 -56 -94q0 -26 35 -60l-20 -14q-57 27 -57 87q0 45 61 115q51 58 68 89t17 65q0 45 -32 76t-79 31q-31 0 -64 -18q-14 -20 -31 -52q-2 -4 -12 -22zM135 43q0 23 16 39 t39 16q22 0 38 -16t16 -39q0 -22 -16 -38t-39 -16q-22 0 -38 16t-16 38z" />
<glyph unicode="@" horiz-adv-x="677" d="M27 269q0 147 97.5 242t247.5 95q122 0 195.5 -63t73.5 -167q0 -92 -57 -167t-127 -75t-70 86q-29 -45 -55 -63.5t-61 -18.5q-45 0 -70 32t-25 90q0 84 50.5 154.5t126.5 70.5q55 0 77 -44l6 34l60 12l-51 -231q-9 -38 -9 -54q0 -18 10.5 -29t28.5 -11q51 0 89 64.5 t38 152.5q0 101 -64 153q-62 51 -161 51q-134 0 -216 -86.5t-82 -227.5q0 -119 65 -184q69 -67 178 -67q111 0 225 86l-7 -26q-106 -85 -228 -85q-115 0 -194 64q-91 73 -91 212zM241 256q0 -88 56 -88q45 0 75 64q15 30 29 88t14 88q0 25 -14.5 40.5t-38.5 15.5 q-47 0 -84 -63.5t-37 -144.5z" />
<glyph unicode="A" horiz-adv-x="714" d="M10 -3v31q49 1 62 13q12 4 53 103l223 531h27l238 -564q25 -59 37 -70t54 -13v-32q-101 4 -122 4t-125 -4v32q52 1 67 4.5t15 16.5q0 9 -11 37l-53 137q-31 1 -93 1q-128 0 -169 -1l-54 -130q-11 -26 -11 -38q0 -13 12 -18t53 -7l17 -1v-33q-87 4 -113 4q-23 0 -107 -3z M228 262q27 -1 99 -1q110 0 132 1l-118 286z" />
<glyph unicode="B" horiz-adv-x="571" d="M30 639v30h18l64 -2q21 -1 54 -1q15 0 42.5 2t70.5 2l53 1q79 1 125 -31.5t46 -99.5t-52 -113q-33 -28 -101 -49q95 -6 141 -45.5t46 -116.5q0 -93 -75 -156t-187 -63q-16 0 -59 1.5t-54 1.5q-14 0 -90 -3v20q22 10 30 18t9 23q3 24 3 448q0 68 -3 92t-13 30 q-13 8 -68 11zM201 45q44 -9 76 -9q73 0 117 47t44 124q0 42 -16 74.5t-45 48.5q-40 23 -118 23q-29 0 -57 -2v-159q0 -37 -0.5 -76.5t-0.5 -41.5v-29zM202 463q0 -27 0.5 -45t0.5 -27q18 -2 39 -2q68 0 102 18q64 32 64 109q0 116 -136 116q-30 0 -69 -7q-1 -81 -1 -99v-63 z" />
<glyph unicode="C" horiz-adv-x="675" d="M43 334q0 157 103.5 252t275.5 95q115 0 224 -37q-19 -56 -23 -145h-30l-2 51q-1 32 -15 45q-53 45 -161 45q-137 0 -207 -91q-62 -79 -62 -196q0 -144 84.5 -232t221.5 -88q112 0 191 58l9 -9l-16 -46q-108 -56 -218 -56q-75 0 -145 24t-119 67q-111 97 -111 263z" />
<glyph unicode="D" horiz-adv-x="742" d="M30 639v31q99 -5 137 -5q57 0 145 4q42 2 53 2q117 0 195 -44q67 -38 103 -106t36 -155q0 -116 -59 -209t-160 -134q-68 -27 -172 -27q-20 0 -107 4q-13 1 -36 1q-34 0 -100 -6v23l10 6q22 12 28.5 20.5t8.5 25.5q4 20 4 267q0 179 -3 227t-14 59q-12 11 -69 16zM205 443 q0 -216 2 -396q59 -8 105 -8q133 0 202 70q83 85 83 237q0 139 -71 210.5t-208 71.5q-38 0 -112 -9q-1 -100 -1 -176z" />
<glyph unicode="E" horiz-adv-x="572" d="M23 636v33q112 -4 167 -4q4 0 70.5 1.5t147.5 1.5h82l8 -11q-5 -35 -5 -137h-31q-3 79 -12 89q-14 17 -157 17q-36 0 -84 -3q-1 -98 -1 -151q0 -39 1 -112h16l60 1l62 2q58 2 66 10q9 7 11 52l1 24h32q-3 -67 -3 -113q0 -41 3 -107h-33q-2 50 -5 63.5t-15 19.5 q-5 3 -23 3.5t-63.5 1.5t-94.5 4l-14 1q-1 -13 -1 -24l1 -116l-1 -115q0 -11 1 -24q70 -2 147 -2q90 0 114 7q13 4 18 17t14 64l7 32h31q-11 -99 -11 -144v-15q-40 -4 -79 -4q-30 0 -124.5 1.5t-121.5 1.5q-36 0 -167 -6v30h15q33 0 45.5 6.5t15.5 23.5q6 30 6 354 q0 168 -8 200q-4 15 -18.5 21t-49.5 6h-20z" />
<glyph unicode="F" horiz-adv-x="519" d="M23 639v31l18 -1l54 -4q16 -1 58 -1q68 0 208 2l68 1h53l5 -8l-6 -48q0 -6 -2 -42l-2 -33l-1 -14h-28q-4 64 -7 78.5t-16 18.5q-29 9 -147 9q-25 0 -69 -3q-4 -81 -4 -203q0 -35 1 -62q36 -1 60 -1q98 0 124 6q11 3 14.5 11.5t7.5 41.5q0 2 1 11t2 14h31q-5 -58 -5 -128 q0 -32 1 -95h-32q-5 79 -13 87q-11 12 -124 12q-42 0 -67 -1v-13l-1 -80q-1 -112 1.5 -144t12.5 -42q12 -12 82 -13v-30q-105 4 -139 4q-40 0 -138 -5v30q10 1 22 1q39 1 49.5 5.5t15.5 19.5q6 20 6 323q0 211 -7 239q-6 24 -54 25z" />
<glyph unicode="G" horiz-adv-x="766" d="M43 326q0 156 97 253q102 102 291 102q138 0 255 -47q-15 -63 -20 -141h-29v23q0 36 -2.5 47t-13.5 20q-29 26 -84.5 42.5t-110.5 16.5q-128 0 -205 -80t-77 -213q0 -141 81 -234t203 -93q45 0 98.5 11.5t62.5 23.5q7 10 7 73q0 71 -2 83q-3 12 -45 14l-63 5v32 q80 -5 155 -5q35 0 75 3l3 -23q-17 -11 -21 -13.5t-10.5 -13.5t-7 -25.5t-0.5 -44.5q0 -50 6 -105q-147 -57 -278 -57q-165 0 -265 95t-100 251z" />
<glyph unicode="H" horiz-adv-x="784" d="M23 640v30q83 -4 132 -4q23 0 137 3v-30h-13q-61 0 -69 -19q-6 -17 -6 -217q0 -12 1 -27q75 -4 230 -4q101 0 147 3q0 67 -2 174q-1 63 -10.5 75t-58.5 14q-13 0 -23 1v31q92 -3 141 -3q19 0 131 2v-31h-11q-41 0 -53 -3t-19 -15q-7 -16 -7 -105v-28l-1 -141 q-2 -216 3 -278q2 -27 16.5 -33.5t70.5 -8.5v-29q-60 3 -125 3q-75 0 -144 -3v29q67 2 78 14q10 10 11 68q3 48 3 182v41q-99 3 -181 3q-64 0 -196 -3v-66q0 -173 6 -207q4 -19 17 -24t66 -7v-29q-50 2 -113 2q-30 0 -156 -3v30l17 1q46 3 57 9t13 31q4 45 4 325 q0 211 -12 231q-11 16 -65 16h-16z" />
<glyph unicode="I" horiz-adv-x="313" d="M24 638v31q75 -3 143 -3q57 0 122 3v-30q-51 -1 -64 -4.5t-16 -14.5q-6 -21 -6 -379q0 -183 13 -201q7 -9 61 -13l13 -1v-29q-92 3 -133 3q-51 0 -132 -3v29h16q36 0 48 5t17 20q9 33 9 351q0 67 -5 194q-1 28 -12 35t-55 7h-19z" />
<glyph unicode="J" horiz-adv-x="322" d="M-12 -109l12 7q31 -30 65 -30q39 0 50 35q10 27 10 149q0 526 -6 557q-4 17 -16 22.5t-51 7.5q-13 0 -23 1v30q75 -4 135 -4q40 0 134 3v-31q-63 -1 -73 -9q-11 -9 -11 -77v-415q0 -78 -2 -104t-11 -56q-20 -65 -73 -115.5t-103 -50.5q-14 0 -35 4v22q0 27 -2 54z" />
<glyph unicode="K" horiz-adv-x="675" d="M23 639v32q76 -5 127 -5q31 0 136 4v-31q-45 -2 -57 -3.5t-19 -8.5q-6 -10 -7.5 -27.5t-1.5 -94.5v-167q12 11 249 245q41 41 41 48q0 6 -11 9v28q38 -2 86 -2q47 0 83 2v-28q-54 -4 -69 -8.5t-39 -26.5q-11 -9 -256 -233l27 -25q145 -136 148 -139q43 -41 117 -114 q47 -48 59.5 -56t38.5 -10v-32q-48 4 -66 4q-5 0 -63 -3q-88 87 -330 319l-15 -13v-147q0 -75 1.5 -94.5t8.5 -25.5q9 -6 62 -9l15 -1v-29q-122 3 -131 3q-24 0 -132 -4v29q10 1 23 1q51 3 57 14q9 14 9 194q0 354 -6 382q-3 12 -14.5 16.5t-48.5 5.5z" />
<glyph unicode="L" horiz-adv-x="573" d="M23 640v28q117 -3 131 -3q55 0 140 6v-30q-65 -3 -77 -10q-9 -4 -10 -35t-2 -222l-1 -331q51 -3 92 -3q175 0 195 22q9 9 31 109h31q-11 -68 -19 -167q-39 -5 -79 -5l-178 1h-81q-63 0 -129 -6v24l8 4q25 13 30.5 21t7.5 28q4 80 4 351q0 161 -4 187q-2 19 -15 23.5 t-75 7.5z" />
<glyph unicode="M" horiz-adv-x="884" d="M16 638v30q88 -4 111 -4q32 0 67 5q51 -117 125 -271q61 -127 124 -265q7 15 14.5 30.5t11.5 24.5t5 11l98 210q56 119 116 261q47 -4 82 -4q39 0 94 4v-31l-21 -1q-50 -3 -58 -16q-5 -9 -6 -21.5t-2 -78.5q-1 -65 -1 -183q0 -193 3 -242.5t15 -57.5q15 -11 70 -12v-29 q-69 2 -117 2q-11 0 -139 -3v30q49 1 63 6q12 5 16 25t4 80l-1 373v57q-17 -37 -128 -279q-82 -178 -132 -302h-17q-29 67 -144 312l-121 262q1 -469 10 -500q5 -20 21 -26.5t63 -7.5v-30q-68 3 -102 3t-123 -4v31q47 0 61 5.5t20 26.5q12 44 12 362q0 122 -2.5 159 t-11.5 44q-13 11 -80 14z" />
<glyph unicode="N" horiz-adv-x="773" d="M20 -4v29q59 0 72 17q10 12 13 70.5t4 227.5l1 182q0 14 0.5 35.5t0.5 31.5q0 11 -13 25q-9 10 -15.5 14.5t-15 6.5t-22.5 3q-3 0 -25 2v29q51 -3 90 -3q26 0 71 3q158 -209 450 -553q0 93 -2 225.5t-2 177.5q0 25 -1 40.5t-2.5 29.5t-6.5 21.5t-10.5 13.5t-16.5 8.5 t-23 4t-31 1.5v31q105 -3 111 -3q35 0 108 5v-30q-33 -2 -48.5 -6.5t-24.5 -15.5q-10 -13 -12 -58.5t-2 -289.5q0 -160 3 -274l-5 -11q-25 5 -51 10l-51 62q-57 69 -195.5 238.5t-221.5 270.5l2 -232q1 -192 4 -237.5t16 -55.5q17 -13 70 -14v-31q-51 3 -95 3q-61 0 -124 -4 z" />
<glyph unicode="O" horiz-adv-x="780" d="M43 337q0 79 28 147.5t78 110.5q100 86 253 86t243.5 -89t90.5 -238q0 -159 -103.5 -266.5t-256.5 -107.5q-78 0 -145.5 30t-111.5 83q-76 91 -76 244zM139 368q0 -123 50 -218q67 -127 208 -127q113 0 176 79t63 221q0 146 -68.5 233t-184.5 87q-56 0 -106.5 -22 t-81.5 -59q-56 -67 -56 -194z" />
<glyph unicode="P" horiz-adv-x="572" d="M23 638v32q110 -3 126 -3q35 0 140 4q46 2 60 2q102 0 155.5 -39t53.5 -115q0 -86 -66 -145.5t-160 -59.5q-30 0 -66 8q-2 13 -8 29l4 5q32 -9 61 -9q63 0 100 40.5t37 109.5q0 65 -41.5 102t-115.5 37q-46 0 -98 -15v-483q0 -60 4.5 -80t16.5 -24q12 -5 70 -7v-30 q-72 3 -127 3q-59 0 -145 -3v29h15q42 0 54.5 5t17.5 20q7 24 7 288q0 201 -3 250q-2 30 -16 39.5t-58 9.5h-18z" />
<glyph unicode="Q" horiz-adv-x="781" d="M43 332q0 171 106 263q99 86 253 86q153 0 243.5 -89t90.5 -238t-89.5 -252.5t-232.5 -119.5q42 -17 109 -46q108 -46 149 -46q28 0 82 26v-30q-28 -16 -46 -28l-31 -20q-4 -2 -9 -6.5t-9 -7t-9 -2.5q-43 0 -164 48q-101 41 -133 41q-35 0 -96 -41v33q28 28 118 77 q-151 1 -241.5 97t-90.5 255zM139 368q0 -123 50 -218q67 -127 208 -127q113 0 176 79t63 221q0 146 -68.5 233t-184.5 87q-56 0 -106.5 -22t-81.5 -59q-56 -67 -56 -194z" />
<glyph unicode="R" horiz-adv-x="650" d="M23 -3v29l13 1q44 3 53 4.5t13 7.5q8 10 10 62t2 254q0 164 -2 212t-10 59q-6 8 -66 13l-13 1v30q123 -3 136 -3q132 4 179 4q78 0 124 -18q38 -15 60 -49.5t22 -78.5q0 -70 -49 -118.5t-139 -67.5q37 -55 107 -147q90 -118 96 -127q19 -22 34.5 -29t51.5 -10v-29 q-46 3 -80 3q-25 0 -66 -3q-28 38 -32 42l-91 126q-74 102 -139 180l4 15q34 -2 38 -2q76 0 122 40t46 107q0 61 -38.5 95t-109.5 34q-39 0 -95 -12q-3 -82 -3 -395q0 -109 3 -147.5t13 -43.5q8 -5 74 -10v-29q-75 3 -121 3q-27 0 -147 -3z" />
<glyph unicode="S" horiz-adv-x="553" d="M53 13q1 57 4 187h28q4 -68 19 -102q15 -35 52.5 -55.5t88.5 -20.5q78 0 123 40t45 110q0 71 -53 101q-17 10 -29.5 14t-85.5 23q-85 22 -127 50q-59 39 -59 130q0 86 60 138.5t157 52.5q85 0 172 -33l-18 -148l-27 2q-7 77 -9 85q-7 16 -36 35q-37 23 -87 23 q-59 0 -94 -32.5t-35 -88.5q0 -55 32 -85q26 -26 116 -48q127 -31 172 -67t45 -109q0 -109 -92 -178q-75 -57 -193 -57q-74 0 -169 33z" />
<glyph unicode="T" horiz-adv-x="567" d="M15 516v23l1 54v26q0 31 -1 53q185 -7 267 -7q100 0 271 8q-12 -96 -10 -158h-30q-1 9 -1 20q-3 53 -10.5 67.5t-33.5 18.5q-29 5 -96 5h-44q-3 -162 -3 -377q0 -132 2.5 -169t12.5 -43q12 -7 78 -10v-30q-112 4 -142 4q-55 0 -131 -5v31q66 1 77 9q11 7 14 63t3 267 q0 8 -2 260q-110 0 -141 -4q-29 -5 -36 -18t-14 -73q0 -3 -2 -15h-29z" />
<glyph unicode="U" horiz-adv-x="721" d="M18 640v31q89 -6 138 -6q55 0 123 5v-30l-15 -1q-42 -3 -53.5 -8t-15.5 -24q-5 -33 -5 -260q0 -146 3 -173q9 -77 75 -111q45 -24 115 -24q143 0 178 96q11 29 14 68t3 137q0 192 -1.5 226.5t-9.5 49.5q-7 13 -23.5 18t-58.5 6v31q85 -5 132 -5q41 0 92 4v-30 q-41 -1 -56 -8t-23 -27q-10 -35 -11 -150l-3 -210q-1 -74 -12 -115.5t-39 -71.5q-70 -73 -213 -73q-108 0 -171.5 40t-72.5 114q-4 33 -4 164v215q0 63 -3.5 83t-15.5 28q-16 10 -67 11z" />
<glyph unicode="V" horiz-adv-x="682" d="M10 637v32q64 -4 114 -4q43 0 135 4v-34q-6 1 -13 1q-44 0 -55.5 -3t-11.5 -14q0 -3 0.5 -5.5t2 -7.5t3.5 -10.5t6 -16t8.5 -22.5t12.5 -33t16 -43l136 -365l125 325q52 138 52 167q0 15 -14 20.5t-66 9.5v30q68 -2 110 -2q43 0 101 3v-29l-9 -1q-35 0 -49.5 -19 t-52.5 -115q-24 -59 -65 -163t-75.5 -190.5t-65.5 -162.5h-38q-38 108 -43 120l-169 434l-12 29q-14 31 -14 33q-8 22 -18.5 26.5t-50.5 5.5z" />
<glyph unicode="W" horiz-adv-x="950" d="M10 639v31q55 -5 115 -5q44 0 128 4v-29q-51 -2 -66.5 -6.5t-15.5 -18.5q0 -9 8 -47q17 -84 49.5 -239t40.5 -195l125 330q64 170 76 212h31l6 -20q11 -35 42 -126l139 -403l92 348q28 109 28 129q0 19 -15.5 26t-61.5 9v30q92 -3 112 -3q48 0 97 4v-30q-7 -1 -16 -1 q-34 -2 -48 -21.5t-38 -99.5q-83 -274 -147 -529h-44q-19 73 -74 216q-21 54 -43 118l-71 205l-142 -378q-34 -93 -57 -161h-41q-14 69 -38 176l-86 377q-10 45 -20 76q-7 21 -52 21h-13z" />
<glyph unicode="X" horiz-adv-x="624" d="M14 -1v30q34 0 47 7q10 6 74 94l148 205l-97 158q-44 71 -77 107q-24 27 -54 27q-7 0 -29 -3v30l138 23q35 -37 74 -106l93 -163l120 173q26 37 30 46.5t4 28.5v10h114v-24l-6 -1l-23 -2q-15 -2 -31 -18.5t-73 -92.5l-115 -155l158 -255q39 -64 52.5 -76.5t41.5 -12.5h7 v-31q-29 2 -80 2q-35 0 -56 -2q-25 34 -55 90q-20 36 -118 209l-72 -106q-102 -150 -102 -185v-7l-58 1q-31 0 -55 -1z" />
<glyph unicode="Y" horiz-adv-x="623" d="M5 626v27q84 14 120 24q34 -22 76.5 -90.5t145.5 -262.5q15 33 89 164q12 21 99 182h68v-13q-69 -84 -169 -253q-44 -75 -54.5 -102t-10.5 -68q0 -182 11 -194q10 -10 79 -13v-29q-39 2 -98 2q-67 0 -174 -4v30l13 1q50 4 61 7t15 17q7 22 7 148v26q0 12 -1 25v13 q0 14 -7 25l-25 45q-73 129 -113.5 189t-69.5 83t-62 21z" />
<glyph unicode="Z" horiz-adv-x="626" d="M20 -2v26q57 66 145.5 185.5t298.5 414.5q-55 2 -108 2q-178 0 -213 -10q-16 -4 -21.5 -19.5t-8.5 -60.5q0 -14 -1 -25h-31q1 28 1 64q0 37 -2 95q34 1 57 1q7 0 105 -2q114 -3 236 -3q72 0 114 2v-26q-104 -125 -445 -600q317 0 338 2q39 4 50.5 21t17.5 79q1 3 3 24h36 q-10 -67 -10 -144v-26q-30 -1 -68 -1q-44 0 -164.5 1.5t-145.5 1.5q-10 0 -184 -2z" />
<glyph unicode="[" horiz-adv-x="304" d="M77 -174q8 106 8 338q0 412 -8 546l6 7q48 -4 80 -4q3 0 91 3v-30l-46 -8q-34 -6 -40.5 -13.5t-8.5 -40.5q-2 -79 -2 -83v-522q0 -137 6 -140q4 -8 12 -11.5t33 -8.5l46 -9v-30q-20 1 -38 1.5t-26.5 1t-15.5 0.5h-11q-27 0 -80 -3z" />
<glyph unicode="\" horiz-adv-x="383" d="M13 702q22 -2 25 -2t23 2q2 -4 40 -97q20 -49 140 -338t183 -442q-11 1 -25 1q-13 0 -23 -1q-63 152 -181 437t-142 343z" />
<glyph unicode="]" horiz-adv-x="304" d="M51 -150l46 9q35 7 41.5 14.5t7.5 42.5q0 14 2 539q0 173 -5 198q-2 11 -11 16t-35 9l-46 8v30q85 -3 91 -3q32 0 80 4l6 -7q-7 -134 -7 -568q0 -216 7 -316l-6 -6q-53 3 -80 3q-7 0 -91 -3v30z" />
<glyph unicode="^" horiz-adv-x="434" d="M46 453l151 244h32l158 -244l-45 -14l-127 201l-124 -201z" />
<glyph unicode="_" horiz-adv-x="500" d="M0 -82h500v-44h-500v44z" />
<glyph unicode="`" horiz-adv-x="500" d="M82 650q0 13 8.5 21t22.5 8q18 0 49 -31l122 -127h-21l-128 76q-31 19 -42 30t-11 23z" />
<glyph unicode="a" horiz-adv-x="468" d="M37 104q0 46 21.5 79.5t59.5 48.5q36 14 129 33l35 7t26 5q-1 53 -17 80q-28 46 -92 46q-38 0 -75 -20l-26 -65l-26 6v66q13 6 35 19.5t26 15.5q49 29 101 29q82 0 124 -50q28 -33 29 -119l4 -206q1 -37 8.5 -43.5t52.5 -8.5v-30q-57 4 -71 4q-21 0 -72 -5l2 81 q-75 -60 -92 -72q-29 -20 -67 -20q-53 0 -84 32t-31 87zM120 122q0 -35 19 -56.5t51 -21.5q70 0 121 80l-2 127q-8 -2 -19 -5l-10 -3q-75 -20 -92.5 -26t-32.5 -18q-35 -25 -35 -77z" />
<glyph unicode="b" horiz-adv-x="534" d="M7 641v27q93 6 158 34l5 -6q-3 -77 -3 -131v-210l54 58q39 41 111 41q71 0 118.5 -54t47.5 -134q0 -75 -43 -149q-10 -16 -22 -27t-42 -31l-37 -27q-34 -26 -53 -33.5t-52 -7.5q-64 0 -116 39l-37 -35l-20 6q9 75 9 362q0 255 -9 270q-7 8 -51 8h-18zM167 120 q0 -18 1.5 -23t10.5 -13q43 -41 103 -41t97 50.5t37 131.5q0 77 -34.5 121.5t-93.5 44.5q-71 0 -109 -63q-12 -19 -12 -44v-164z" />
<glyph unicode="c" horiz-adv-x="435" d="M37 208q0 47 14 90.5t37 66.5q26 28 103 67q43 22 93 22q64 0 115 -27q-12 -48 -15 -125h-27q0 7 -1 15.5t-1.5 14t-0.5 7.5q-1 18 -6 26.5t-17 16.5q-37 23 -85 23q-60 0 -91.5 -40t-31.5 -117q0 -94 44.5 -154t115.5 -60q57 0 105 27l11 -11l-20 -31q-65 -34 -132 -34 q-96 0 -153 60.5t-57 162.5z" />
<glyph unicode="d" horiz-adv-x="556" d="M37 204q0 49 15.5 94.5t40.5 68.5q23 23 92 59q52 28 94 28q46 0 107 -30q1 31 1 68q0 85 -1 108.5t-6 30.5q-5 6 -49 9q-11 0 -20 1v27q100 7 161 34l5 -7q-9 -113 -9 -463q0 -154 4 -178q3 -13 12 -17t42 -10q2 -1 18 -3v-26q-52 2 -84 2q-27 0 -78 -3q4 72 4 88 q-55 -46 -58 -50l-28 -25q-20 -19 -76 -19q-83 0 -135 59t-52 154zM123 234q0 -81 39 -132t101 -51q57 0 90 42t33 114v136q-37 37 -67.5 52.5t-65.5 15.5q-61 0 -95.5 -47t-34.5 -130z" />
<glyph unicode="e" horiz-adv-x="469" d="M37 212q0 126 75 186q69 56 147 56q80 0 127 -50t47 -135q0 -3 -2 -29q-49 -15 -170 -15h-134q1 -69 25 -113q20 -36 56 -56.5t79 -20.5q63 0 125 43l9 -7l-16 -41q-73 -45 -162 -45q-92 0 -149 63t-57 164zM128 262q73 -5 140 -5q32 0 79 3q1 8 1 17q0 71 -28 108.5 t-80 37.5q-69 0 -97 -66q-12 -31 -15 -95z" />
<glyph unicode="f" horiz-adv-x="306" d="M23 -3v28q48 2 58.5 5t14.5 19q7 30 7 275q0 18 -1 46l-65 -4v20l65 28v30q0 80 8 106.5t44 65.5q46 50 73 68.5t53 18.5q21 0 52 -10l-3 -90l-14 -2q-35 39 -73 39q-26 0 -39.5 -19t-17.5 -62q-1 -18 -1 -141h19q33 0 97 4l4 -3q-6 -35 -8 -47q-25 1 -55 1q-32 0 -57 -1 q-1 -38 -1 -73v-51q0 -32 0.5 -69.5t0.5 -43.5q0 -86 8 -95q7 -9 57 -14q1 0 5 -0.5t10 -1.5t11 -1v-25h-26l-101 2z" />
<glyph unicode="g" horiz-adv-x="495" d="M23 -122q0 27 19 76q49 18 94 46q-64 23 -64 68q0 13 5 29q26 18 80 57q-110 30 -110 133q0 70 58.5 118.5t144.5 48.5q66 0 114 -36q15 -1 34 -1q66 0 110 4q-2 -7 -9 -50l-105 2q15 -33 15 -65q0 -69 -54 -114.5t-137 -45.5q-14 0 -26 1q-37 -28 -37 -53q0 -40 116 -40 q8 0 86 2q61 1 95.5 -30t34.5 -88q0 -88 -77 -149.5t-187 -61.5q-89 0 -144.5 41t-55.5 108zM96 -113q0 -58 38.5 -92.5t103.5 -34.5q72 0 121 42.5t49 104.5q0 28 -14 47t-39 26q-45 13 -118 10l-66 -2q-44 -23 -59.5 -44t-15.5 -57zM128 312q0 -59 27.5 -96t71.5 -37 q46 0 72.5 32t26.5 86q0 58 -27 91.5t-73 33.5q-45 0 -71.5 -30t-26.5 -80z" />
<glyph unicode="h" horiz-adv-x="556" d="M13 641v27q97 7 155 34l8 -5q-4 -44 -4 -124v-210l61 59q33 32 90 32q83 0 124 -51q29 -36 29 -126q0 -19 -1.5 -83t-1.5 -69v-41t3 -26.5t5.5 -17.5t13.5 -7.5t19.5 -4.5t30.5 -1v-28q-76 2 -83 2q-26 0 -76 -3q7 145 7 231q0 88 -17 121q-24 43 -85 43q-69 0 -107 -55 q-8 -11 -9.5 -24t-1.5 -56l1 -167q0 -46 9.5 -54.5t64.5 -10.5v-28q-61 2 -100 2q-2 0 -16 -0.5t-46 -1t-72 -0.5v28h14q46 0 55 13q7 9 8.5 52.5t1.5 262.5q0 155 -3 257q-1 20 -9 23.5t-51 5.5z" />
<glyph unicode="i" horiz-adv-x="268" d="M25 -2v27l14 1q35 2 44.5 5.5t12.5 15.5q5 27 5 221q0 102 -8 111q-3 4 -24 6q-6 0 -9 0.5t-9.5 0.5t-12.5 1q-7 0 -13 1v27q97 16 153 41l8 -8q-4 -108 -4 -245q0 -138 6 -156q3 -10 13.5 -14t37.5 -6l16 -1v-29q-83 4 -116 4q-23 0 -114 -3zM86 609q0 22 15.5 37.5 t37.5 15.5q21 0 36.5 -15.5t15.5 -37.5t-15.5 -37t-37.5 -15q-21 0 -36.5 15.5t-15.5 36.5z" />
<glyph unicode="j" horiz-adv-x="261" d="M-12 -234q5 0 10.5 -0.5t8.5 -1t6 -0.5q28 0 44.5 15t26.5 60t13.5 116.5t3.5 194.5q0 214 -4 226q-3 8 -11 10t-42 3q-10 0 -17 1v26q97 13 152 39l9 -8q-7 -105 -7 -230q0 -190 -1 -228t-8 -76q-19 -115 -89 -159q-34 -22 -70 -22q-8 0 -14 1zM87 609q0 22 15.5 37.5 t37.5 15.5q21 0 36.5 -15.5t15.5 -37.5t-15.5 -37t-37.5 -15q-21 0 -36.5 15.5t-15.5 36.5z" />
<glyph unicode="k" horiz-adv-x="544" d="M10 641v27q92 7 156 34l7 -6q0 -26 -1 -90.5t-1 -86.5v-263q52 35 152 129q25 25 32.5 35.5t9.5 24.5q39 -2 63 -2q29 0 63 2v-27q-43 -1 -62 -10t-81 -57l-101 -79l143 -143q33 -33 49.5 -48.5t30.5 -24.5t21.5 -10.5t21.5 -1.5q10 0 31 4v-21q-106 -32 -120 -37 q-36 32 -130 129q-57 58 -119 116l-4 -2q0 -194 8 -195q8 -9 66 -14v-26q-69 2 -107 2q-48 0 -124 -3v28q59 1 69 13q8 9 8 344q0 168 -3 226q-1 22 -8.5 26.5t-47.5 5.5q-12 0 -22 1z" />
<glyph unicode="l" horiz-adv-x="260" d="M17 -3v27l10 1q50 5 55 9q1 1 2 3q7 11 7 289q0 284 -2 293q-2 14 -12.5 17t-58.5 5v28q89 6 153 33l7 -6q-6 -86 -6 -416q0 -205 5 -233q1 -13 9.5 -16t57.5 -7v-28q-59 5 -116 5q-51 0 -111 -4z" />
<glyph unicode="m" horiz-adv-x="834" d="M23 390v26q101 13 152 39l9 -7l-3 -79l59 56q32 29 88 29q63 0 99 -36q16 -15 35 -53l54 54q35 35 96 35q41 0 75.5 -20.5t50.5 -53.5q15 -34 15 -105q0 -5 -0.5 -23t-0.5 -29l-1 -108q-1 -64 9 -75.5t67 -12.5v-28q-72 3 -93 3q-26 0 -68 -3q5 90 5 190q0 111 -10 144 q-20 61 -87 61q-38 0 -66.5 -20t-35.5 -52q-4 -20 -4 -95q0 -17 -0.5 -35t-0.5 -36v-54q0 -42 3.5 -53.5t16.5 -15.5q15 -5 58 -7v-27q-66 2 -122 2q-37 0 -114 -3v28q60 3 67 11q12 12 12 183q0 94 -18 129q-22 45 -80 45q-56 0 -88 -43q-22 -28 -22 -81q0 -3 0.5 -27 t0.5 -37v-91q0 -54 2 -66q3 -13 17.5 -17.5t57.5 -5.5v-28q-39 2 -119 2q-78 0 -115 -2v27q55 3 65 10q8 6 9.5 31.5t1.5 157.5q0 148 -8 159q-7 7 -54 7h-15z" />
<glyph unicode="n" horiz-adv-x="576" d="M23 -4v27q6 1 13.5 1.5t16.5 1.5t14 1q16 2 22.5 6.5t7.5 17.5q4 29 4 178q0 140 -9 152q-6 7 -38 7q-4 0 -31 -1v28q86 10 153 39l10 -7q-3 -37 -3 -52v-28l77 67q8 7 34.5 13.5t48.5 6.5q74 0 116 -45q13 -15 21 -33.5t11.5 -45t3.5 -63.5q0 -13 -1 -74.5t-1 -71.5 q0 -50 2 -65.5t10 -20.5q8 -6 47 -10q6 0 10 -1v-27q-56 4 -83 4q-32 0 -75 -4q8 117 8 235q0 83 -16 111q-26 48 -96 48q-59 0 -96 -40q-24 -25 -24 -73l1 -193q0 -44 10 -51.5t69 -9.5v-27q-102 3 -123 3q-29 0 -114 -4z" />
<glyph unicode="o" horiz-adv-x="518" d="M37 222q0 102 65.5 167t168.5 65q101 0 156 -57.5t55 -163.5q0 -111 -64.5 -179.5t-168.5 -68.5q-98 0 -155 63.5t-57 173.5zM125 253q0 -78 30 -147q37 -87 118 -87q57 0 89 47t32 130q0 95 -36 164q-34 64 -106 64q-60 0 -93.5 -45t-33.5 -126z" />
<glyph unicode="p" horiz-adv-x="559" d="M15 -235q59 1 69.5 12t10.5 73q0 366 -1 435.5t-5 85.5q-3 11 -12 14t-34 3q-15 0 -27 -1v29q83 6 149 37l12 -7l-2 -88l73 67q30 29 99 29q79 0 127 -51.5t48 -135.5q0 -45 -15 -90t-39 -73q-28 -32 -124 -88q-42 -25 -80 -25q-49 0 -89 27v-31q0 -135 1.5 -168.5 t7.5 -41.5q9 -10 68 -15v-24q-64 3 -101 3q-39 0 -136 -4v28zM175 99q31 -31 57 -44t60 -13q64 0 105.5 51.5t41.5 131.5q0 76 -38.5 122t-100.5 46q-44 0 -84.5 -31t-40.5 -65v-198z" />
<glyph unicode="q" horiz-adv-x="534" d="M37 203q0 135 94 190q66 39 94.5 50t62.5 11q61 0 119 -35l46 32l17 -9q-11 -44 -14.5 -102.5t-3.5 -217.5q0 -237 2 -289t13 -60q13 -9 64 -10v-26q-87 3 -119 3q-2 0 -123 -3v26l15 1q42 3 51.5 7t11.5 20q6 32 6 211v63l-89 -57q-27 -17 -64 -17q-79 0 -131 60.5 t-52 151.5zM122 232q0 -80 38 -133t96 -53q61 0 115 68v251q-54 48 -111 48q-62 0 -100 -49.5t-38 -131.5z" />
<glyph unicode="r" horiz-adv-x="375" d="M17 -4v28q54 4 63.5 7t12.5 16q7 27 7 193q0 128 -10 141q-7 8 -54 8h-18v28q95 7 152 38l9 -9l-1 -101l17 19l25 35q40 54 92 54q21 0 43 -9q-10 -51 -11 -118h-21q-20 43 -56 43q-26 0 -47 -15t-29 -39q-13 -35 -13 -137q0 -110 8 -134q3 -11 15 -15t52 -6l16 -1v-26 q-59 4 -110 4q-42 0 -142 -4z" />
<glyph unicode="s" horiz-adv-x="401" d="M37 10q10 28 10 131h29v-12q0 -33 6 -50t22 -32q34 -31 86 -31q45 0 75 25.5t30 63.5q0 45 -44 66q-24 10 -83 32q-63 23 -87 49t-24 71q0 61 41.5 96t114.5 35q63 0 125 -26q-5 -27 -6 -108h-28q-3 49 -19 69q-27 36 -79 36q-39 0 -62.5 -19t-23.5 -51q0 -43 54 -68 q16 -8 94 -34q97 -33 97 -113q0 -67 -54.5 -111t-138.5 -44q-69 0 -135 25z" />
<glyph unicode="t" horiz-adv-x="319" d="M20 360v21l72 30l-3 149q46 18 78 36l10 -9q-3 -42 -5 -174q82 0 122 6l3 -2l-8 -48q-77 0 -117 -1l1 -197q0 -65 8 -90q4 -16 18.5 -25.5t33.5 -9.5q27 0 67 23l5 -19q-31 -34 -52 -53q-32 -12 -58 -12q-65 0 -88 42q-11 19 -13 33.5t-2 75.5l1 228q-39 0 -73 -4z" />
<glyph unicode="u" horiz-adv-x="550" d="M13 390v28q96 7 154 37l10 -8q-8 -116 -8 -262q0 -76 19.5 -105.5t69.5 -29.5q66 0 109 63q12 18 14.5 40t2.5 112q0 108 -8 119q-6 7 -38 7q-17 0 -36 -1v28q105 13 157 38l9 -7q-7 -187 -7 -334v-36t3 -23t5 -15t12 -7.5t17.5 -5t27.5 -2.5l11 -1v-27q-75 2 -85 2 q-26 0 -72 -3q2 30 5 93l-75 -72q-27 -27 -93 -27q-68 0 -104 39q-28 32 -28 110q0 27 1.5 105.5t1.5 82.5q0 50 -8 56q-10 6 -49 6h-18z" />
<glyph unicode="v" horiz-adv-x="486" d="M-7 414v29q63 -4 107 -4q36 0 116 4v-27q-43 -2 -57 -6t-14 -15t14 -48l104 -268l97 240q18 43 18 66q0 26 -50 30l-13 1v27q54 -3 92 -3q41 0 86 3v-27q-31 -3 -42 -11.5t-28 -43.5q-107 -227 -159 -368h-43q-9 23 -14 33q-27 62 -77 180t-58 136l-11 25 q-13 31 -22 37.5t-39 8.5z" />
<glyph unicode="w" horiz-adv-x="741" d="M-7 418v25q54 -2 107 -2q54 0 117 2v-25q-47 -1 -59 -5t-12 -18q0 -9 15 -64l65 -231l95 221q25 58 52 132h23q6 -19 45 -121l92 -237l70 193q26 71 26 94q0 18 -13 25t-53 11v25q58 -1 98 -1q39 0 87 1v-25q-30 -1 -46.5 -16.5t-38.5 -66.5q-70 -162 -130 -342h-44 l-127 335l-93 -210q-25 -59 -47 -125h-42q-8 28 -23 76l-78 261q-18 61 -30 73.5t-56 14.5z" />
<glyph unicode="x" horiz-adv-x="495" d="M13 412l105 40q29 -12 48.5 -33.5t54.5 -79.5l42 -70l72 98q41 57 40 76q40 -2 46 -2q5 0 43 2v-26q-25 -1 -39 -9t-38 -37l-107 -129l94 -137q27 -39 48.5 -54.5t47.5 -15.5q15 0 24 1v-21l-114 -28q-18 7 -32 21.5t-36 48.5l-79 123l-73 -103q-38 -54 -38 -80 q-30 3 -48 3q-22 0 -58 -3v27q34 1 47 8t40 41l111 135q-74 112 -94 134q-43 49 -85 49q-12 0 -21 -2z" />
<glyph unicode="y" horiz-adv-x="484" d="M-7 414v29q52 -4 96 -4q28 0 127 4v-27l-51 -5q-18 -5 -18 -22q0 -20 45 -135l69 -177l76 192q36 90 36 115q0 15 -10.5 21.5t-38.5 8.5l-11 1v26q53 -2 95 -2q32 0 83 3v-27q-38 -3 -56.5 -27.5t-64.5 -133.5l-138 -329q-42 -100 -68 -141q-16 -25 -41 -40.5t-50 -15.5 q-30 0 -71 18q10 33 20 80h14q22 -35 59 -35q41 0 66 45q16 28 62 136l-135 336q-30 75 -42.5 89t-52.5 17z" />
<glyph unicode="z" horiz-adv-x="456" d="M13 18q69 76 172 212l134 178q-192 -1 -199 -7q-17 -5 -24.5 -22.5t-13.5 -63.5h-26q4 71 4 94q0 18 -1 34q197 -4 250 -4q73 0 118 4v-26q-89 -107 -155 -194q-47 -64 -143 -190q33 -1 68 -1q152 0 178 14q13 7 19.5 25.5t13.5 63.5h28q-11 -71 -12 -134q-23 -4 -44 -4 l-61 1q-64 2 -102 2h-200z" />
<glyph unicode="{" horiz-adv-x="304" d="M0 256v25q49 0 69.5 18t19.5 62l-4 208q-1 104 58 131q36 17 124 17h15l-1 -24q-75 -5 -98 -35q-15 -18 -18.5 -41t-3.5 -98v-83q0 -71 -3.5 -92t-17.5 -40q-20 -25 -60 -36q42 -11 60 -35q15 -19 18 -39.5t3 -92.5v-83q0 -76 3.5 -99t17.5 -42q13 -17 34.5 -24.5 t65.5 -9.5v-24q-96 3 -123 11q-74 22 -74 136q0 13 1.5 91.5t2.5 117.5q0 41 -17.5 59t-58.5 21z" />
<glyph unicode="|" horiz-adv-x="543" d="M249 -167v834h45v-834h-45z" />
<glyph unicode="}" horiz-adv-x="304" d="M22 -180l1 23q75 5 98 35q15 18 18.5 41t3.5 99v82q0 71 3.5 92t17.5 40q20 25 60 36q-40 11 -60 36q-14 19 -17.5 40t-3.5 92v83q0 76 -3.5 99t-17.5 41q-14 17 -35.5 25t-64.5 9v24q88 -1 123 -11q74 -22 74 -135q0 -13 -1.5 -92t-2.5 -118q0 -42 17.5 -60t58.5 -20 q7 0 13 -1v-24q-6 -1 -13 -1q-43 -3 -60 -20.5t-16 -59.5l4 -208q1 -104 -58 -131q-36 -17 -124 -17q-8 0 -15 1z" />
<glyph unicode="~" horiz-adv-x="444" d="M14 640q59 53 113 53q31 0 93 -26q58 -24 89 -24q48 0 103 54l8 -39q-56 -62 -123 -62q-23 0 -39 4.5t-90 31.5q-40 15 -56 15q-40 0 -90 -47z" />
<glyph unicode="&#xa1;" horiz-adv-x="261" d="M87 -222q0 32 20 293q3 38 10 175l27 25l9 -4q6 -94 15 -183q16 -168 16 -205q0 -6 -0.5 -13.5t-1 -22t-0.5 -28.5q-32 -22 -68 -37h-27zM89 400q0 23 15 39t37 16q20 0 35.5 -16.5t15.5 -38.5q0 -23 -15 -39.5t-37 -16.5q-21 0 -36 16.5t-15 39.5z" />
<glyph unicode="&#xa2;" d="M80 315q0 83 41 141q25 38 118 77l22 9q1 13 1 28q0 24 -2 42h40q-2 -31 -2 -65q22 2 25 2q46 0 98 -24q-10 -41 -12 -120h-26q-1 55 -20 77t-65 24v-355q18 -2 20 -2q54 0 102 42l9 -12l-30 -45q-51 -28 -102 -30q0 -53 2 -100h-41l4 100q-70 6 -111 38q-33 26 -52 72 t-19 101zM162 355q0 -153 100 -196v346q-100 -9 -100 -150z" />
<glyph unicode="&#xa3;" d="M4 0v16q0 10 3 29q47 11 66.5 24t33.5 41q28 53 28 165q0 20 -1 35q-18 1 -40 1q-25 0 -45 -1l-8 3q4 24 5 36q41 -3 87 -3q0 107 7.5 149t31.5 69q39 44 112 85q46 27 97 27q64 0 101 -28q-9 -65 -9 -131h-25q-2 14 -2 16q-5 36 -11 50t-22 26q-31 23 -72 23 q-91 0 -113 -114q-9 -44 -12 -172q87 0 168 2l5 -5l-8 -28l-4 -4q-44 1 -102 1h-60q-11 -102 -31 -149t-69 -87q46 18 90 18q50 0 155 -11q26 -3 45 -3q28 0 41.5 18.5t25.5 71.5l4 16l27 -2q-13 -106 -13 -159v-25q-53 -10 -89 -10q-54 0 -201 34q-51 11 -77 11 q-43 0 -103 -45z" />
<glyph unicode="&#xa4;" horiz-adv-x="602" d="M35 101q0 3 5 8l85 85q-53 76 -53 149q0 70 52 147l-84 84q-5 5 -5 8t5 8l13 13q6 5 8 5t8 -5l83 -83q68 49 148 49t150 -47l83 83q5 5 8 5t8 -5l13 -13q5 -5 5 -8t-5 -7l-84 -84q54 -70 54 -151q0 -68 -54 -149l85 -85q5 -6 5 -8q0 -1 -5 -7l-14 -14q-5 -5 -8 -5 q-2 0 -7 5l-86 86q-74 -49 -147 -49q-74 0 -146 50l-86 -86q-5 -5 -8 -5q-2 0 -8 5l-13 13q-5 5 -5 8zM131 343q0 -72 49.5 -122.5t120.5 -50.5t121.5 50.5t50.5 120.5q0 73 -50 124t-121 51q-70 0 -120.5 -51t-50.5 -122z" />
<glyph unicode="&#xa5;" d="M5 641v32q47 -5 110 -5q56 0 109 4v-33h-9q-51 0 -51 -23q0 -18 15 -46l90 -182l86 173q20 40 20 53q0 14 -11.5 19.5t-44.5 6.5v32q59 -4 110 -4q36 0 76 4v-31q-25 -3 -39.5 -9.5t-28.5 -22.5t-35 -51l-109 -181h150v-32h-161v-86h160v-32h-160q-1 -41 -1 -65 q0 -79 1.5 -97.5t9.5 -24.5q7 -5 18.5 -7.5t54.5 -7.5v-28q-75 3 -135 3t-127 -3v29l17 1q31 2 45 5.5t20 10.5t8 22q4 21 4 52l1 84v26h-165v32h165v86h-167v32h159q-13 26 -35 67.5t-41 78t-35 67.5q-15 31 -28.5 40t-45.5 11z" />
<glyph unicode="&#xa6;" horiz-adv-x="500" d="M224 153h53v-320h-53v320zM224 333v334h53v-334h-53z" />
<glyph unicode="&#xa7;" d="M71 314q0 68 54 118q-32 38 -32 92q0 73 48 112t137 39q64 0 125 -22l-7 -140h-25q-3 68 -28.5 98.5t-79.5 30.5q-48 0 -76 -23t-28 -63q0 -38 28 -62t104 -52q85 -31 115.5 -58t30.5 -72q0 -48 -54 -115q52 -40 52 -107q0 -80 -64.5 -134.5t-159.5 -54.5q-65 0 -133 31 v157h31q2 -22 2 -24q1 -36 6 -51.5t19 -29.5q36 -39 102 -39q60 0 97.5 30t37.5 79q0 50 -50 79q-28 15 -113 42q-76 23 -107.5 55t-31.5 84zM125 360q0 -43 29.5 -67t113.5 -49q57 -17 94 -34q19 29 19 55q0 34 -25.5 56.5t-91.5 46.5q-89 33 -120 52q-19 -30 -19 -60z" />
<glyph unicode="&#xa8;" horiz-adv-x="500" d="M104 600q0 20 14.5 34.5t34.5 14.5t34.5 -14.5t14.5 -34.5t-14.5 -34.5t-35.5 -14.5q-20 0 -34 14.5t-14 34.5zM298 600q0 20 14.5 34.5t34.5 14.5t34.5 -14.5t14.5 -34.5t-14.5 -34.5t-35.5 -14.5q-20 0 -34 14.5t-14 34.5z" />
<glyph unicode="&#xa9;" horiz-adv-x="787" d="M43 330q0 145 102.5 248t247.5 103t247.5 -102.5t102.5 -247.5q0 -147 -103 -249t-251 -102q-142 0 -244 103.5t-102 246.5zM78 330q0 -129 92 -222t219 -93q134 0 226.5 91.5t92.5 224.5q0 130 -92.5 222.5t-222.5 92.5t-222.5 -92.5t-92.5 -223.5zM187 337 q0 94 65.5 151t173.5 57q68 0 142 -23q-11 -35 -15 -91h-25l-1 33q0 17 -8 24q-32 26 -98 26q-75 0 -119 -45t-44 -121q0 -83 51 -134t135 -51q69 0 119 35l9 -9q-2 -4 -11 -30q-68 -34 -138 -34q-105 0 -170.5 59t-65.5 153z" />
<glyph unicode="&#xaa;" horiz-adv-x="307" d="M28 332q0 59 52 78q22 8 116 26q-3 69 -64 69q-22 0 -44 -11l-16 -40l-22 5v43q8 4 23 12.5t17 9.5q33 18 63 18q52 0 80 -31q18 -20 19 -73l2 -121q0 -19 4 -23q4 -3 34 -5v-25q-34 3 -47 3q-19 0 -37 -2l-11 -1l1 45q-3 -2 -13.5 -10t-19.5 -15q-35 -26 -62 -26 q-35 0 -55 20t-20 54zM86 343q0 -20 11 -31.5t30 -11.5q40 0 71 44l-1 70l-14 -4q-70 -20 -77 -25q-20 -15 -20 -42z" />
<glyph unicode="&#xab;" horiz-adv-x="441" d="M46 220v12q68 64 166 166l21 -15q-61 -84 -111 -157q53 -80 111 -156l-21 -16q-91 94 -166 166zM208 220v12q65 61 163 166l24 -15q-81 -109 -114 -157q62 -90 114 -156l-24 -16q-101 107 -163 166z" />
<glyph unicode="&#xac;" horiz-adv-x="533" d="M12 194v44h490v-267h-47v223h-443z" />
<glyph unicode="&#xad;" horiz-adv-x="282" d="M0 203q15 37 24 68q72 -3 114 -3q30 0 140 3l4 -7q-16 -35 -23 -68q-65 4 -119 4q-55 0 -134 -4z" />
<glyph unicode="&#xae;" horiz-adv-x="787" d="M43 330q0 145 102.5 248t247.5 103t247.5 -102.5t102.5 -247.5q0 -147 -103 -249t-251 -102q-142 0 -244 103.5t-102 246.5zM78 330q0 -129 92 -222t219 -93q134 0 226.5 91.5t92.5 224.5q0 130 -92.5 222.5t-222.5 92.5t-222.5 -92.5t-92.5 -223.5zM208 135v23q5 1 11 1 q36 3 38 6q7 8 7 192q0 142 -7 150q-5 7 -38 7h-11v25q22 0 43 -0.5t31.5 -1t13.5 -0.5q30 0 80 2q9 0 19.5 0.5t11.5 0.5q131 0 131 -90q0 -41 -30.5 -71.5t-84.5 -40.5q8 -12 49 -64t45 -57q35 -45 46 -51t37 -8v-23q-34 2 -52 2q-7 0 -43 -2l-67.5 90t-92.5 117l4 14 q20 -2 23 -2q44 0 71.5 23t27.5 61q0 35 -23 54t-66 19q-23 0 -55 -7q-2 -62 -2 -222q0 -110 6 -117q4 -4 50 -6v-24q-72 2 -78 2q-5 0 -15.5 -0.5t-32.5 -1t-47 -0.5z" />
<glyph unicode="&#xaf;" horiz-adv-x="500" d="M129 572v44h243v-44h-243z" />
<glyph unicode="&#xb0;" horiz-adv-x="282" d="M43 584q0 40 29 68.5t69 28.5t68.5 -28.5t28.5 -68.5q0 -41 -29 -69.5t-70 -28.5q-39 0 -67.5 29t-28.5 69zM74 584q0 -28 19.5 -47.5t46.5 -19.5q28 0 47.5 19.5t19.5 47.5q0 27 -19.5 46.5t-46.5 19.5q-28 0 -47.5 -19.5t-19.5 -46.5z" />
<glyph unicode="&#xb1;" horiz-adv-x="576" d="M71 65v59h433v-59h-433zM71 342v59h185v174h63v-174h185v-59h-185v-173h-63v173h-185z" />
<glyph unicode="&#xb2;" horiz-adv-x="335" d="M31 264v20l106 110q48 50 67 82.5t19 63.5q0 37 -21.5 59.5t-56.5 22.5q-27 0 -48 -13q-14 -8 -22 -38l-7 -25h-24l2 14q6 43 8 68q41 44 105 44q57 0 91 -31t34 -83q0 -34 -17 -65t-59 -72l-103 -102h90q56 0 111 5q-3 -21 -3 -31q0 -11 3 -30q-59 4 -118 4 q-68 0 -157 -3z" />
<glyph unicode="&#xb3;" horiz-adv-x="335" d="M27 362l21 9q22 -45 31 -55q23 -26 65 -26q40 0 62.5 25t22.5 69q0 37 -18.5 58t-50.5 21q-23 0 -52 -10l-6 5l4 33q15 -2 27 -2q32 0 51.5 19.5t19.5 51.5q0 31 -17 47.5t-49 16.5q-26 0 -49 -13q-13 -9 -24 -42q0 -1 -4 -13h-24l2 12l7 28l7 33q42 43 101 43 q46 0 75.5 -25t29.5 -63q0 -50 -56 -91q89 -9 89 -92q0 -58 -47 -99.5t-113 -41.5q-35 0 -86 14q-1 34 -19 88z" />
<glyph unicode="&#xb4;" horiz-adv-x="500" d="M215 521q12 11 62 60t77 75q24 24 39 24q10 0 17 -8.5t7 -20.5q0 -26 -44 -53l-127 -77h-31z" />
<glyph unicode="&#xb5;" horiz-adv-x="602" d="M87 -174q14 249 14 380q0 119 -4 259l75 6q-12 -191 -12 -266q0 -82 22 -120q32 -52 103 -52q74 0 106 69q17 37 17 134q0 129 -5 227l79 8q-13 -140 -13 -327q0 -65 11 -86q14 -28 47 -28q22 0 49 15l-6 -27q-34 -28 -77 -28q-78 0 -85 98q-49 -98 -149 -98 q-75 0 -118 59l12 -218z" />
<glyph unicode="&#xb6;" d="M85 486q0 97 61 144q48 37 141 37h209v-28l-98 -7q-32 -2 -37 -7t-5 -31v-580q0 -94 -28 -134q-31 -43 -90 -43q-43 0 -71 24.5t-28 62.5q0 26 15.5 42.5t40.5 16.5q24 0 38.5 -14t14.5 -37q0 -18 -11 -32q-9 -11 -9 -15q0 -14 25 -14q75 0 75 130v5l-4 276 q-113 3 -176 56.5t-63 147.5z" />
<glyph unicode="&#xb7;" horiz-adv-x="268" d="M79 230q0 23 16.5 39.5t39.5 16.5t39 -16.5t16 -39.5t-16.5 -39t-39.5 -16q-22 0 -38.5 16.5t-16.5 38.5z" />
<glyph unicode="&#xb8;" horiz-adv-x="500" d="M176 -174l14 25q36 -11 65 -11q28 0 44 12.5t16 34.5q0 37 -44 37q-12 0 -26 -5l-8 6l34 75h29l-21 -50q18 3 26 3q31 0 50.5 -17t19.5 -44q0 -35 -30.5 -57.5t-79.5 -22.5q-34 0 -89 14z" />
<glyph unicode="&#xb9;" horiz-adv-x="335" d="M37 610q102 30 159 62l10 -8q-4 -62 -4 -204q0 -140 4 -155t48 -15q12 0 21 -1v-25q-86 3 -102 3q-11 0 -105 -3v25q49 1 60 5q6 2 9 7t4 17t2 36q0 1 2 123l1 88q0 7 -1 16t-1 12l1 17q-2 5 -4 6q-1 0 -1 -1l-6 -2q-4 0 -26 -12q-50 -24 -65 -32z" />
<glyph unicode="&#xba;" horiz-adv-x="338" d="M28 401q0 62 41.5 101.5t107.5 39.5q64 0 99 -35t35 -99q0 -67 -41 -108.5t-107 -41.5q-62 0 -98.5 38.5t-36.5 104.5zM89 420q0 -59 25 -97t63 -38q34 0 53 27t19 74q0 61 -22.5 96t-62.5 35q-35 0 -55 -25.5t-20 -71.5z" />
<glyph unicode="&#xbb;" horiz-adv-x="441" d="M46 70q69 92 114 157q-57 83 -114 155l24 16q92 -97 163 -165v-13q-65 -61 -163 -166zM208 70q61 84 111 157q-62 92 -111 155l21 16q79 -82 166 -165v-13q-68 -62 -166 -166z" />
<glyph unicode="&#xbc;" horiz-adv-x="725" d="M37 610q102 30 159 62l10 -8q-4 -62 -4 -204q0 -140 4 -155t48 -15q12 0 21 -1v-25q-86 3 -102 3q-11 0 -105 -3v25q49 1 60 5q6 2 9 7t4 17t2 36q0 1 2 123l1 88q0 7 -1 16t-1 12l1 17q-2 5 -4 6q-1 0 -1 -1l-6 -2q-4 0 -26 -12q-50 -24 -65 -32zM176 -2q16 30 29 55 l283 565q10 21 19 51q19 -3 27 -3q9 0 16 1q-19 -31 -29 -51l-286 -572q-10 -18 -21 -46q-8 1 -18 1q-12 0 -20 -1zM408 121q70 120 165 266l45 17l10 -5q-3 -112 -3 -158q0 -55 1 -96q32 0 64 4q-3 -16 -3 -24t3 -25l-64 3v-33q0 -28 2 -35t11 -9q18 -4 50 -4v-25 q-56 3 -94 3q-40 0 -98 -3v24q43 2 54.5 4t12.5 7q5 13 5 71h-9l-20 1q-53 3 -126 -4zM456 145q27 -1 62 -1q30 0 51 1l1 187q-84 -135 -114 -187z" />
<glyph unicode="&#xbd;" horiz-adv-x="725" d="M37 610q102 30 159 62l10 -8q-4 -62 -4 -204q0 -140 4 -155t48 -15q12 0 21 -1v-25q-86 3 -102 3q-11 0 -105 -3v25q49 1 60 5q6 2 9 7t4 17t2 36q0 1 2 123l1 88q0 7 -1 16t-1 12l1 17q-2 5 -4 6q-1 0 -1 -1l-6 -2q-4 0 -26 -12q-50 -24 -65 -32zM176 -2q16 30 29 55 l283 565q10 21 19 51q19 -3 27 -3q9 0 16 1q-19 -31 -29 -51l-286 -572q-10 -18 -21 -46q-8 1 -18 1q-12 0 -20 -1zM420 -3v21l106 110q48 50 67 82t19 63q0 36 -22 59t-56 23q-27 0 -48 -13q-14 -8 -22 -38l-7 -25h-24l2 14q6 43 8 68q41 44 105 44q57 0 91 -31t34 -83 q0 -34 -17 -65t-59 -72l-103 -102q6 1 90 1q67 0 111 4q-3 -19 -3 -31q0 -9 3 -30q-59 4 -118 4q-70 0 -157 -3z" />
<glyph unicode="&#xbe;" horiz-adv-x="725" d="M27 362l21 9q22 -45 31 -55q23 -26 65 -26q40 0 62.5 25t22.5 69q0 37 -18.5 58t-50.5 21q-23 0 -52 -10l-6 5l4 33q15 -2 27 -2q32 0 51.5 19.5t19.5 51.5q0 31 -17 47.5t-49 16.5q-26 0 -49 -13q-13 -9 -24 -42q0 -1 -4 -13h-24l2 12l7 28l7 33q42 43 101 43 q46 0 75.5 -25t29.5 -63q0 -50 -56 -91q89 -9 89 -92q0 -58 -47 -99.5t-113 -41.5q-35 0 -86 14q-1 34 -19 88zM176 -2q15 25 30 55l282 565q8 15 19 51q19 -3 27 -3q9 0 16 1q-14 -23 -28 -51l-287 -572q-12 -22 -20 -46q-9 1 -19 1q-12 0 -20 -1zM408 121q70 120 165 266 l45 17l10 -5q-3 -113 -3 -158q0 -55 1 -96q32 0 64 4q-3 -17 -3 -24q0 -9 3 -25l-64 3v-33q0 -28 2 -35t11 -9q18 -4 50 -4v-25q-56 3 -94 3q-40 0 -98 -3v24q65 3 67 11q5 13 5 71h-9l-20 1q-53 3 -126 -4zM456 145q27 -1 62 -1q30 0 51 1l1 187q-84 -135 -114 -187z" />
<glyph unicode="&#xbf;" horiz-adv-x="414" d="M44 -83q0 66 42 117q17 20 88 88q56 54 56 94q0 28 -35 60l20 15q57 -29 57 -88q0 -25 -13 -49.5t-48 -65.5q-51 -58 -68 -89t-17 -65q0 -45 32 -76t79 -31q31 0 64 18q8 12 22 37t21 37l26 -3l-39 -118q-55 -35 -115 -35q-73 0 -122.5 44.5t-49.5 109.5zM173 399 q0 22 16 38t39 16q22 0 38 -16t16 -38q0 -23 -16 -39t-39 -16q-22 0 -38 16t-16 39z" />
<glyph unicode="&#xc0;" horiz-adv-x="714" d="M10 -3v31q49 1 62 13q12 4 53 103l223 531h27l238 -564q25 -59 37 -70t54 -13v-32q-101 4 -122 4t-125 -4v32q52 1 67 4.5t15 16.5q0 9 -11 37l-53 137q-31 1 -93 1q-128 0 -169 -1l-54 -130q-11 -26 -11 -38q0 -13 12 -18t53 -7l17 -1v-33q-87 4 -113 4q-23 0 -107 -3z M179 871q0 13 8.5 21t22.5 8q18 0 47 -30l124 -129h-21l-128 76q-30 18 -41.5 29.5t-11.5 24.5zM228 262q27 -1 99 -1q110 0 132 1l-118 286z" />
<glyph unicode="&#xc1;" horiz-adv-x="714" d="M10 -3v31q49 1 62 13q12 4 53 103l223 531h27l238 -564q25 -59 37 -70t54 -13v-32q-101 4 -122 4t-125 -4v32q52 1 67 4.5t15 16.5q0 9 -11 37l-53 137q-31 1 -93 1q-128 0 -169 -1l-54 -130q-11 -26 -11 -38q0 -13 12 -18t53 -7l17 -1v-33q-87 4 -113 4q-23 0 -107 -3z M228 262q27 -1 99 -1q110 0 132 1l-118 286zM353 741l129 125q2 1 3.5 3t3.5 4l3 3q24 24 38 24q11 0 18 -8t7 -21q0 -25 -45 -53l-126 -77h-31z" />
<glyph unicode="&#xc2;" horiz-adv-x="714" d="M10 -3v31q49 1 62 13q12 4 53 103l223 531h27l238 -564q25 -59 37 -70t54 -13v-32q-101 4 -122 4t-125 -4v32q52 1 67 4.5t15 16.5q0 9 -11 37l-53 137q-31 1 -93 1q-128 0 -169 -1l-54 -130q-11 -26 -11 -38q0 -13 12 -18t53 -7l17 -1v-33q-87 4 -113 4q-23 0 -107 -3z M226 741l121 162h46l109 -162h-17l-116 102l-114 -102h-29zM228 262q27 -1 99 -1q110 0 132 1l-118 286z" />
<glyph unicode="&#xc3;" horiz-adv-x="714" d="M10 -3v31q49 1 62 13q12 4 53 103l223 531h27l238 -564q25 -59 37 -70t54 -13v-32q-101 4 -122 4t-125 -4v32q52 1 67 4.5t15 16.5q0 9 -11 37l-53 137q-31 1 -93 1q-128 0 -169 -1l-54 -130q-11 -26 -11 -38q0 -13 12 -18t53 -7l17 -1v-33q-87 4 -113 4q-23 0 -107 -3z M201 771q26 95 102 95q33 0 87 -25q47 -21 67 -21q38 0 58 49h24q-25 -98 -99 -98q-33 0 -106 31q-32 13 -52 13q-37 0 -56 -44h-25zM228 262q27 -1 99 -1q110 0 132 1l-118 286z" />
<glyph unicode="&#xc4;" horiz-adv-x="714" d="M10 -3v31q49 1 62 13q12 4 53 103l223 531h27l238 -564q25 -59 37 -70t54 -13v-32q-101 4 -122 4t-125 -4v32q52 1 67 4.5t15 16.5q0 9 -11 37l-53 137q-31 1 -93 1q-128 0 -169 -1l-54 -130q-11 -26 -11 -38q0 -13 12 -18t53 -7l17 -1v-33q-87 4 -113 4q-23 0 -107 -3z M218 820q0 20 14.5 34.5t34.5 14.5t34.5 -14.5t14.5 -34.5t-14.5 -34.5t-35.5 -14.5q-20 0 -34 14.5t-14 34.5zM228 262q27 -1 99 -1q110 0 132 1l-118 286zM412 820q0 20 14.5 34.5t34.5 14.5t34.5 -14.5t14.5 -34.5t-14.5 -34.5t-35.5 -14.5q-20 0 -34 14.5t-14 34.5z" />
<glyph unicode="&#xc5;" horiz-adv-x="714" d="M10 -3v31q49 1 62 13q12 4 53 103l223 531h27l238 -564q25 -59 37 -70t54 -13v-32q-101 4 -122 4t-125 -4v32q52 1 67 4.5t15 16.5q0 9 -11 37l-53 137q-31 1 -93 1q-128 0 -169 -1l-54 -130q-11 -26 -11 -38q0 -13 12 -18t53 -7l17 -1v-33q-87 4 -113 4q-23 0 -107 -3z M228 262q27 -1 99 -1q110 0 132 1l-118 286zM264 831q0 43 27 68.5t73 25.5t73 -25.5t27 -68.5q0 -44 -27 -69.5t-74 -25.5q-46 0 -72.5 25.5t-26.5 69.5zM301 831q0 -35 16.5 -55.5t45.5 -20.5q30 0 47 20t17 56q0 35 -17 55t-46 20t-46 -20t-17 -55z" />
<glyph unicode="&#xc6;" horiz-adv-x="885" d="M0 -5v30h9q14 2 20 2.5t15.5 6t14 10t15.5 21t19.5 32t26.5 49.5q18 33 105 193t134 245q16 28 16 39t-14.5 14t-85.5 6v29q214 -7 367 -7q27 0 157 2l7 -10q-6 -57 -6 -98q0 -14 1 -40h-32q-1 77 -9 87q-17 20 -149 20q-23 0 -80 -1q0 -43 -0.5 -81.5t-1 -58.5t-0.5 -32 q0 -39 1 -92h63q127 0 135 11q5 3 8 20q0 21 3 42q0 1 2 15h30q-4 -60 -4 -124q0 -43 3 -97h-32q0 52 -4 66t-20 19q-34 9 -158 9q-14 0 -26 -1l-1 -278h20q25 0 78.5 -1t82.5 -1q65 0 78.5 11t25.5 74l7 35h32q-10 -78 -11 -162q-58 -2 -67 -2q-150 3 -231 3q-94 0 -149 -5 v25q47 13 47 38q1 13 3 178q-37 2 -100 2t-129 -1l-65 -132q-18 -36 -18 -49q0 -18 28 -22q17 -3 55 -6v-33q-45 5 -99 5q-58 0 -117 -5zM237 276h101q20 0 41 0.5t29 0.5q21 0 37 -1l-2 312q0 34 -1 48h-11q-19 -30 -50 -89z" />
<glyph unicode="&#xc7;" horiz-adv-x="675" d="M43 334q0 157 103.5 252t275.5 95q115 0 224 -37q-19 -56 -23 -145h-30l-2 51q-1 32 -15 45q-53 45 -161 45q-137 0 -207 -91q-62 -79 -62 -196q0 -144 84.5 -232t221.5 -88q112 0 191 58l9 -9l-16 -46q-97 -53 -208 -56l-20 -46q19 4 30 4q34 0 55.5 -17.5t21.5 -46.5 q0 -37 -33.5 -60.5t-87.5 -23.5q-37 0 -99 14l16 26q41 -10 72 -10t48.5 13t17.5 36q0 38 -49 38q-14 0 -29 -5l-8 6l33 72q-160 8 -256.5 105t-96.5 249z" />
<glyph unicode="&#xc8;" horiz-adv-x="572" d="M23 636v33q112 -4 167 -4q4 0 70.5 1.5t147.5 1.5h82l8 -11q-5 -35 -5 -137h-31q-3 79 -12 89q-14 17 -157 17q-36 0 -84 -3q-1 -98 -1 -151q0 -39 1 -112h16l60 1l62 2q58 2 66 10q9 7 11 52l1 24h32q-3 -67 -3 -113q0 -41 3 -107h-33q-2 50 -5 63.5t-15 19.5 q-5 3 -23 3.5t-63.5 1.5t-94.5 4l-14 1q-1 -13 -1 -24l1 -116l-1 -115q0 -11 1 -24q70 -2 147 -2q90 0 114 7q13 4 18 17t14 64l7 32h31q-11 -99 -11 -144v-15q-40 -4 -79 -4q-30 0 -124.5 1.5t-121.5 1.5q-36 0 -167 -6v30h15q33 0 45.5 6.5t15.5 23.5q6 30 6 354 q0 168 -8 200q-4 15 -18.5 21t-49.5 6h-20zM111 871q0 13 8.5 21t22.5 8q18 0 47 -30l124 -129h-21l-128 76q-30 18 -41.5 29.5t-11.5 24.5z" />
<glyph unicode="&#xc9;" horiz-adv-x="572" d="M23 636v33q112 -4 167 -4q4 0 70.5 1.5t147.5 1.5h82l8 -11q-5 -35 -5 -137h-31q-3 79 -12 89q-14 17 -157 17q-36 0 -84 -3q-1 -98 -1 -151q0 -39 1 -112h16l60 1l62 2q58 2 66 10q9 7 11 52l1 24h32q-3 -67 -3 -113q0 -41 3 -107h-33q-2 50 -5 63.5t-15 19.5 q-5 3 -23 3.5t-63.5 1.5t-94.5 4l-14 1q-1 -13 -1 -24l1 -116l-1 -115q0 -11 1 -24q70 -2 147 -2q90 0 114 7q13 4 18 17t14 64l7 32h31q-11 -99 -11 -144v-15q-40 -4 -79 -4q-30 0 -124.5 1.5t-121.5 1.5q-36 0 -167 -6v30h15q33 0 45.5 6.5t15.5 23.5q6 30 6 354 q0 168 -8 200q-4 15 -18.5 21t-49.5 6h-20zM281 741l129 125q2 1 3.5 3t3.5 4l3 3q24 24 38 24q11 0 18 -8t7 -21q0 -25 -45 -53l-126 -77h-31z" />
<glyph unicode="&#xca;" horiz-adv-x="572" d="M23 636v33q112 -4 167 -4q4 0 70.5 1.5t147.5 1.5h82l8 -11q-5 -35 -5 -137h-31q-3 79 -12 89q-14 17 -157 17q-36 0 -84 -3q-1 -98 -1 -151q0 -39 1 -112h16l60 1l62 2q58 2 66 10q9 7 11 52l1 24h32q-3 -67 -3 -113q0 -41 3 -107h-33q-2 50 -5 63.5t-15 19.5 q-5 3 -23 3.5t-63.5 1.5t-94.5 4l-14 1q-1 -13 -1 -24l1 -116l-1 -115q0 -11 1 -24q70 -2 147 -2q90 0 114 7q13 4 18 17t14 64l7 32h31q-11 -99 -11 -144v-15q-40 -4 -79 -4q-30 0 -124.5 1.5t-121.5 1.5q-36 0 -167 -6v30h15q33 0 45.5 6.5t15.5 23.5q6 30 6 354 q0 168 -8 200q-4 15 -18.5 21t-49.5 6h-20zM157 741l121 162h46l109 -162h-17l-116 102l-114 -102h-29z" />
<glyph unicode="&#xcb;" horiz-adv-x="572" d="M23 636v33q112 -4 167 -4q4 0 70.5 1.5t147.5 1.5h82l8 -11q-5 -35 -5 -137h-31q-3 79 -12 89q-14 17 -157 17q-36 0 -84 -3q-1 -98 -1 -151q0 -39 1 -112h16l60 1l62 2q58 2 66 10q9 7 11 52l1 24h32q-3 -67 -3 -113q0 -41 3 -107h-33q-2 50 -5 63.5t-15 19.5 q-5 3 -23 3.5t-63.5 1.5t-94.5 4l-14 1q-1 -13 -1 -24l1 -116l-1 -115q0 -11 1 -24q70 -2 147 -2q90 0 114 7q13 4 18 17t14 64l7 32h31q-11 -99 -11 -144v-15q-40 -4 -79 -4q-30 0 -124.5 1.5t-121.5 1.5q-36 0 -167 -6v30h15q33 0 45.5 6.5t15.5 23.5q6 30 6 354 q0 168 -8 200q-4 15 -18.5 21t-49.5 6h-20zM149 820q0 20 14.5 34.5t34.5 14.5t34.5 -14.5t14.5 -34.5t-14.5 -34.5t-35.5 -14.5q-20 0 -34 14.5t-14 34.5zM343 820q0 20 14.5 34.5t34.5 14.5t34.5 -14.5t14.5 -34.5t-14.5 -34.5t-35.5 -14.5q-20 0 -34 14.5t-14 34.5z" />
<glyph unicode="&#xcc;" horiz-adv-x="313" d="M-25 871q0 13 8.5 21t22.5 8q18 0 47 -30l124 -129h-21l-128 76q-30 18 -41.5 29.5t-11.5 24.5zM23 638v31q75 -3 143 -3q57 0 123 3v-30q-52 -1 -65 -4.5t-16 -14.5q-6 -21 -6 -379q0 -183 13 -201q7 -9 61 -13l13 -1v-29q-91 3 -133 3q-51 0 -132 -3v29h16q36 0 48 5 t17 20q9 33 9 351q0 67 -5 194q-1 28 -12 35t-55 7h-19z" />
<glyph unicode="&#xcd;" horiz-adv-x="313" d="M24 638v31q75 -3 143 -3q57 0 122 3v-30q-51 -1 -64 -4.5t-16 -14.5q-6 -21 -6 -379q0 -183 13 -201q7 -9 61 -13l13 -1v-29q-92 3 -133 3q-51 0 -132 -3v29h16q36 0 48 5t17 20q9 33 9 351q0 67 -5 194q-1 28 -12 35t-55 7h-19zM152 741l129 125q2 1 3.5 3t3.5 4l3 3 q24 24 38 24q11 0 18 -8t7 -21q0 -25 -45 -53l-126 -77h-31z" />
<glyph unicode="&#xce;" horiz-adv-x="313" d="M24 638v31q75 -3 143 -3q57 0 122 3v-30q-51 -1 -64 -4.5t-16 -14.5q-6 -21 -6 -379q0 -183 13 -201q7 -9 61 -13l13 -1v-29q-92 3 -133 3q-51 0 -132 -3v29h16q36 0 48 5t17 20q9 33 9 351q0 67 -5 194q-1 28 -12 35t-55 7h-19zM25 741l121 162h46l109 -162h-17 l-116 102l-114 -102h-29z" />
<glyph unicode="&#xcf;" horiz-adv-x="313" d="M24 638v31q75 -3 143 -3q57 0 122 3v-30q-51 -1 -64 -4.5t-16 -14.5q-6 -21 -6 -379q0 -183 13 -201q7 -9 61 -13l13 -1v-29q-92 3 -133 3q-51 0 -132 -3v29h16q36 0 48 5t17 20q9 33 9 351q0 67 -5 194q-1 28 -12 35t-55 7h-19zM44 820q0 20 14.5 34.5t34.5 14.5 t34.5 -14.5t14.5 -34.5t-14.5 -34.5t-35.5 -14.5q-20 0 -34 14.5t-14 34.5zM192 820q0 20 14.5 34.5t34.5 14.5t34.5 -14.5t14.5 -34.5t-14.5 -34.5t-35.5 -14.5q-20 0 -34 14.5t-14 34.5z" />
<glyph unicode="&#xd0;" horiz-adv-x="742" d="M-1 328v3l1 14q-1 14 -1 18q46 -2 116 -2v98q0 98 -2.5 125.5t-13.5 38.5q-15 12 -69 16v31q99 -5 136 -5q57 0 145 4q44 2 53 2q118 0 196 -44q66 -38 102 -106t36 -155q0 -116 -59 -209t-160 -134q-67 -27 -172 -27q-20 0 -106 4q-13 1 -37 1q-32 0 -99 -6v23q7 3 10 6 q30 18 34 31q4 10 4 26v73q0 46 1 80q0 19 0.5 42.5t0.5 27.5v25q-91 0 -116 -1zM205 199l1 -116v-36q60 -8 105 -8q133 0 203 70q82 85 82 237q0 139 -71 210.5t-208 71.5q-48 0 -111 -9q-1 -64 -1 -257h62q41 0 69 2v-36h-32q-12 0 -38 0.5t-61 0.5v-130z" />
<glyph unicode="&#xd1;" horiz-adv-x="773" d="M20 -4v29q59 0 72 17q10 12 13 70.5t4 227.5l1 182q0 14 0.5 35.5t0.5 31.5q0 11 -13 25q-9 10 -15.5 14.5t-15 6.5t-22.5 3q-3 0 -25 2v29q51 -3 90 -3q26 0 71 3q158 -209 450 -553q0 93 -2 225.5t-2 177.5q0 25 -1 40.5t-2.5 29.5t-6.5 21.5t-10.5 13.5t-16.5 8.5 t-23 4t-31 1.5v31q105 -3 111 -3q35 0 108 5v-30q-33 -2 -48.5 -6.5t-24.5 -15.5q-10 -13 -12 -58.5t-2 -289.5q0 -160 3 -274l-5 -11q-25 5 -51 10l-51 62q-57 69 -195.5 238.5t-221.5 270.5l2 -232q1 -192 4 -237.5t16 -55.5q17 -13 70 -14v-31q-51 3 -95 3q-61 0 -124 -4 zM240 771q26 95 102 95q33 0 87 -25q47 -21 67 -21q38 0 58 49h24q-12 -47 -37.5 -72.5t-61.5 -25.5q-15 0 -26.5 2.5t-29 8.5t-50.5 20q-32 13 -52 13q-37 0 -56 -44h-25z" />
<glyph unicode="&#xd2;" horiz-adv-x="780" d="M43 337q0 79 28 147.5t78 110.5q100 86 253 86t243.5 -89t90.5 -238q0 -159 -103.5 -266.5t-256.5 -107.5q-78 0 -145.5 30t-111.5 83q-76 91 -76 244zM139 368q0 -123 50 -218q67 -127 208 -127q113 0 176 79t63 221q0 146 -68.5 233t-184.5 87q-56 0 -106.5 -22 t-81.5 -59q-56 -67 -56 -194zM218 871q0 13 8.5 21t22.5 8q18 0 47 -30l124 -129h-21l-128 76q-30 18 -41.5 29.5t-11.5 24.5z" />
<glyph unicode="&#xd3;" horiz-adv-x="780" d="M43 337q0 79 28 147.5t78 110.5q100 86 253 86t243.5 -89t90.5 -238q0 -159 -103.5 -266.5t-256.5 -107.5q-78 0 -145.5 30t-111.5 83q-76 91 -76 244zM139 368q0 -123 50 -218q67 -127 208 -127q113 0 176 79t63 221q0 146 -68.5 233t-184.5 87q-56 0 -106.5 -22 t-81.5 -59q-56 -67 -56 -194zM385 741l129 125q2 1 3.5 3t3.5 4l3 3q24 24 38 24q11 0 18 -8t7 -21q0 -25 -45 -53l-126 -77h-31z" />
<glyph unicode="&#xd4;" horiz-adv-x="780" d="M43 337q0 79 28 147.5t78 110.5q100 86 253 86t243.5 -89t90.5 -238q0 -159 -103.5 -266.5t-256.5 -107.5q-78 0 -145.5 30t-111.5 83q-76 91 -76 244zM139 368q0 -123 50 -218q67 -127 208 -127q113 0 176 79t63 221q0 146 -68.5 233t-184.5 87q-56 0 -106.5 -22 t-81.5 -59q-56 -67 -56 -194zM261 741l121 162h46l109 -162h-17l-116 102l-114 -102h-29z" />
<glyph unicode="&#xd5;" horiz-adv-x="780" d="M43 337q0 79 28 147.5t78 110.5q100 86 253 86t243.5 -89t90.5 -238q0 -159 -103.5 -266.5t-256.5 -107.5q-78 0 -145.5 30t-111.5 83q-76 91 -76 244zM139 368q0 -123 50 -218q67 -127 208 -127q113 0 176 79t63 221q0 146 -68.5 233t-184.5 87q-56 0 -106.5 -22 t-81.5 -59q-56 -67 -56 -194zM247 771q26 95 102 95q33 0 87 -25q47 -21 67 -21q38 0 58 49h24q-25 -98 -99 -98q-33 0 -106 31q-32 13 -52 13q-37 0 -56 -44h-25z" />
<glyph unicode="&#xd6;" horiz-adv-x="780" d="M43 337q0 79 28 147.5t78 110.5q100 86 253 86t243.5 -89t90.5 -238q0 -159 -103.5 -266.5t-256.5 -107.5q-78 0 -145.5 30t-111.5 83q-76 91 -76 244zM139 368q0 -123 50 -218q67 -127 208 -127q113 0 176 79t63 221q0 146 -68.5 233t-184.5 87q-56 0 -106.5 -22 t-81.5 -59q-56 -67 -56 -194zM257 820q0 20 14.5 34.5t34.5 14.5t34.5 -14.5t14.5 -34.5t-14.5 -34.5t-35.5 -14.5q-20 0 -34 14.5t-14 34.5zM451 820q0 20 14.5 34.5t34.5 14.5t34.5 -14.5t14.5 -34.5t-14.5 -34.5t-35.5 -14.5q-20 0 -34 14.5t-14 34.5z" />
<glyph unicode="&#xd7;" d="M60 179l153 153l-153 153l42 42l153 -153l153 153l42 -42l-153 -153l153 -153l-42 -42l-153 153l-153 -153z" />
<glyph unicode="&#xd8;" horiz-adv-x="780" d="M43 332q0 171 106 263q97 86 252 86q126 0 217 -65q56 66 69 83l36 -32q-51 -51 -74 -78q87 -91 87 -235q0 -160 -103.5 -267t-257.5 -107q-113 0 -206 65q-16 -16 -66 -81l-12 -15l-34 31l16 19q40 40 59 62l8 9q-97 95 -97 262zM139 365q0 -129 59 -229 q156 175 369 421q-68 86 -184 86q-56 0 -106.5 -22t-81.5 -59q-56 -67 -56 -197zM221 102q66 -79 174 -79q115 0 178 78.5t63 221.5q0 114 -46 199q-24 -27 -84 -94t-92 -104q-28 -32 -89 -103t-94 -108z" />
<glyph unicode="&#xd9;" horiz-adv-x="721" d="M18 640v31q89 -6 138 -6q55 0 123 5v-30l-15 -1q-42 -3 -53.5 -8t-15.5 -24q-5 -33 -5 -260q0 -146 3 -173q9 -77 75 -111q45 -24 115 -24q143 0 178 96q11 29 14 68t3 137q0 192 -1.5 226.5t-9.5 49.5q-7 13 -23.5 18t-58.5 6v31q85 -5 132 -5q41 0 92 4v-30 q-41 -1 -56 -8t-23 -27q-10 -35 -11 -150l-3 -210q-1 -74 -12 -115.5t-39 -71.5q-70 -73 -213 -73q-108 0 -171.5 40t-72.5 114q-4 33 -4 164v215q0 63 -3.5 83t-15.5 28q-16 10 -67 11zM209 871q0 13 8.5 21t22.5 8q18 0 47 -30l124 -129h-21l-128 76q-30 18 -41.5 29.5 t-11.5 24.5z" />
<glyph unicode="&#xda;" horiz-adv-x="721" d="M18 640v31q89 -6 138 -6q55 0 123 5v-30l-15 -1q-42 -3 -53.5 -8t-15.5 -24q-5 -33 -5 -260q0 -146 3 -173q9 -77 75 -111q45 -24 115 -24q143 0 178 96q11 29 14 68t3 137q0 192 -1.5 226.5t-9.5 49.5q-7 13 -23.5 18t-58.5 6v31q85 -5 132 -5q41 0 92 4v-30 q-41 -1 -56 -8t-23 -27q-10 -35 -11 -150l-3 -210q-1 -74 -12 -115.5t-39 -71.5q-70 -73 -213 -73q-108 0 -171.5 40t-72.5 114q-4 33 -4 164v215q0 63 -3.5 83t-15.5 28q-16 10 -67 11zM369 741l129 125q2 1 3.5 3t3.5 4l3 3q24 24 38 24q11 0 18 -8t7 -21q0 -25 -45 -53 l-126 -77h-31z" />
<glyph unicode="&#xdb;" horiz-adv-x="721" d="M18 640v31q89 -6 138 -6q55 0 123 5v-30l-15 -1q-42 -3 -53.5 -8t-15.5 -24q-5 -33 -5 -260q0 -146 3 -173q9 -77 75 -111q45 -24 115 -24q143 0 178 96q11 29 14 68t3 137q0 192 -1.5 226.5t-9.5 49.5q-7 13 -23.5 18t-58.5 6v31q85 -5 132 -5q41 0 92 4v-30 q-41 -1 -56 -8t-23 -27q-10 -35 -11 -150l-3 -210q-1 -74 -12 -115.5t-39 -71.5q-70 -73 -213 -73q-108 0 -171.5 40t-72.5 114q-4 33 -4 164v215q0 63 -3.5 83t-15.5 28q-16 10 -67 11zM252 741l121 162h46l109 -162h-17l-116 102l-114 -102h-29z" />
<glyph unicode="&#xdc;" horiz-adv-x="721" d="M18 640v31q89 -6 138 -6q55 0 123 5v-30l-15 -1q-42 -3 -53.5 -8t-15.5 -24q-5 -33 -5 -260q0 -146 3 -173q9 -77 75 -111q45 -24 115 -24q143 0 178 96q11 29 14 68t3 137q0 192 -1.5 226.5t-9.5 49.5q-7 13 -23.5 18t-58.5 6v31q85 -5 132 -5q41 0 92 4v-30 q-41 -1 -56 -8t-23 -27q-10 -35 -11 -150l-3 -210q-1 -74 -12 -115.5t-39 -71.5q-70 -73 -213 -73q-108 0 -171.5 40t-72.5 114q-4 33 -4 164v215q0 63 -3.5 83t-15.5 28q-16 10 -67 11zM247 820q0 20 14.5 34.5t34.5 14.5t34.5 -14.5t14.5 -34.5t-14.5 -34.5t-35.5 -14.5 q-20 0 -34 14.5t-14 34.5zM441 820q0 20 14.5 34.5t34.5 14.5t34.5 -14.5t14.5 -34.5t-14.5 -34.5t-35.5 -14.5q-20 0 -34 14.5t-14 34.5z" />
<glyph unicode="&#xdd;" horiz-adv-x="623" d="M5 626v27q84 14 120 24q34 -22 76.5 -90.5t145.5 -262.5q15 33 89 164q12 21 99 182h68v-13q-69 -84 -169 -253q-44 -75 -54.5 -102t-10.5 -68q0 -182 11 -194q10 -10 79 -13v-29q-39 2 -98 2q-67 0 -174 -4v30l13 1q50 4 61 7t15 17q7 22 7 148v26q0 12 -1 25v13 q0 14 -7 25l-25 45q-73 129 -113.5 189t-69.5 83t-62 21zM324 741l129 125q2 1 3.5 3t3.5 4l3 3q24 24 38 24q11 0 18 -8t7 -21q0 -25 -45 -53l-126 -77h-31z" />
<glyph unicode="&#xde;" horiz-adv-x="572" d="M23 638v32q105 -3 140 -3q51 0 126 3v-30h-14q-43 0 -54 -5t-14 -22q-1 -4 -2 -38q19 0 73.5 2t72.5 2q100 0 153.5 -39.5t53.5 -113.5q0 -86 -66 -145.5t-160 -59.5q-30 0 -67 8q-2 17 -7 29l4 5q32 -9 61 -9q63 0 100 40.5t37 109.5q0 65 -42 101.5t-115 36.5 q-45 0 -98 -14q-1 -332 0 -394t8 -87q5 -11 19 -15t64 -5v-30q-72 3 -128 3q-58 0 -144 -3v29h15q42 0 54.5 5t17.5 20q7 24 7 288q0 201 -3 250q-2 30 -16 39.5t-58 9.5h-18z" />
<glyph unicode="&#xdf;" horiz-adv-x="550" d="M33 -3v31q36 1 49.5 7t14.5 25q3 40 5 311h-60v18l60 32v27q0 65 9.5 93.5t43.5 64.5q91 97 172 97q67 0 106.5 -40t39.5 -107q0 -54 -13 -113q-24 -28 -40 -58l-6 -1q-18 26 -49 26q-22 0 -37 -15t-15 -37q0 -19 14 -34t49 -33q76 -39 93 -56q31 -32 31 -81 q0 -32 -15 -58t-52 -59q-31 -27 -52 -36.5t-50 -9.5q-49 0 -83 26v-20q-50 3 -101 3q-55 0 -114 -3zM180 129v-41.5t3 -26t5 -18t12 -8t18.5 -4.5t28.5 -1q18 50 21 92h26q-1 -7 -1 -20q0 -30 19 -49.5t48 -19.5q32 0 55.5 25t23.5 59q0 29 -19.5 49.5t-73.5 47.5 q-45 22 -63.5 44t-18.5 52q0 35 19.5 69t50.5 53q30 18 73 18h6q6 36 6 67q0 67 -32 107.5t-85 40.5q-38 0 -66 -21.5t-42 -60.5t-14 -129v-325z" />
<glyph unicode="&#xe0;" horiz-adv-x="468" d="M37 104q0 46 21.5 79.5t59.5 48.5q36 14 129 33l35 7t26 5q-1 53 -17 80q-28 46 -92 46q-38 0 -75 -20l-26 -65l-26 6v66q13 6 35 19.5t26 15.5q49 29 101 29q82 0 124 -50q28 -33 29 -119l4 -206q1 -37 8.5 -43.5t52.5 -8.5v-30q-57 4 -71 4q-21 0 -72 -5l2 81 q-75 -60 -92 -72q-29 -20 -67 -20q-53 0 -84 32t-31 87zM77 650q0 13 8.5 21t22.5 8q18 0 49 -31l122 -127h-21l-128 76q-31 19 -42 30t-11 23zM120 122q0 -35 19 -56.5t51 -21.5q70 0 121 80l-2 127q-8 -2 -19 -5l-10 -3q-75 -20 -92.5 -26t-32.5 -18q-35 -25 -35 -77z" />
<glyph unicode="&#xe1;" horiz-adv-x="468" d="M37 104q0 46 21.5 79.5t59.5 48.5q36 14 129 33l35 7t26 5q-1 53 -17 80q-28 46 -92 46q-38 0 -75 -20l-26 -65l-26 6v66q13 6 35 19.5t26 15.5q49 29 101 29q82 0 124 -50q28 -33 29 -119l4 -206q1 -37 8.5 -43.5t52.5 -8.5v-30q-57 4 -71 4q-21 0 -72 -5l2 81 q-75 -60 -92 -72q-29 -20 -67 -20q-53 0 -84 32t-31 87zM120 122q0 -35 19 -56.5t51 -21.5q70 0 121 80l-2 127q-8 -2 -19 -5l-10 -3q-75 -20 -92.5 -26t-32.5 -18q-35 -25 -35 -77zM220 521q12 11 62 60t77 75q24 24 39 24q10 0 17 -8.5t7 -20.5q0 -26 -44 -53l-127 -77 h-31z" />
<glyph unicode="&#xe2;" horiz-adv-x="468" d="M37 104q0 46 21.5 79.5t59.5 48.5q36 14 129 33l35 7t26 5q-1 53 -17 80q-28 46 -92 46q-38 0 -75 -20l-26 -65l-26 6v66q13 6 35 19.5t26 15.5q49 29 101 29q82 0 124 -50q28 -33 29 -119l4 -206q1 -37 8.5 -43.5t52.5 -8.5v-30q-57 4 -71 4q-21 0 -72 -5l2 81 q-75 -60 -92 -72q-29 -20 -67 -20q-53 0 -84 32t-31 87zM103 521l121 162h46l109 -162h-17l-116 102l-114 -102h-29zM120 122q0 -35 19 -56.5t51 -21.5q70 0 121 80l-2 127q-8 -2 -19 -5l-10 -3q-75 -20 -92.5 -26t-32.5 -18q-35 -25 -35 -77z" />
<glyph unicode="&#xe3;" horiz-adv-x="468" d="M37 104q0 46 21.5 79.5t59.5 48.5q36 14 129 33l35 7t26 5q-1 53 -17 80q-28 46 -92 46q-38 0 -75 -20l-26 -65l-26 6v66q13 6 35 19.5t26 15.5q49 29 101 29q82 0 124 -50q28 -33 29 -119l4 -206q1 -37 8.5 -43.5t52.5 -8.5v-30q-57 4 -71 4q-21 0 -72 -5l2 81 q-75 -60 -92 -72q-29 -20 -67 -20q-53 0 -84 32t-31 87zM72 558q26 95 102 95q33 0 87 -25q47 -21 67 -21q38 0 58 49h24q-25 -98 -100 -98q-32 0 -105 31q-33 13 -52 13q-37 0 -56 -44h-25zM120 122q0 -35 19 -56.5t51 -21.5q70 0 121 80l-2 127q-8 -2 -19 -5l-10 -3 q-75 -20 -92.5 -26t-32.5 -18q-35 -25 -35 -77z" />
<glyph unicode="&#xe4;" horiz-adv-x="468" d="M37 104q0 46 21.5 79.5t59.5 48.5q36 14 129 33l35 7t26 5q-1 53 -17 80q-28 46 -92 46q-38 0 -75 -20l-26 -65l-26 6v66q13 6 35 19.5t26 15.5q49 29 101 29q82 0 124 -50q28 -33 29 -119l4 -206q1 -37 8.5 -43.5t52.5 -8.5v-30q-57 4 -71 4q-21 0 -72 -5l2 81 q-75 -60 -92 -72q-29 -20 -67 -20q-53 0 -84 32t-31 87zM96 600q0 20 14.5 34.5t34.5 14.5t34.5 -14.5t14.5 -34.5t-14.5 -34.5t-35.5 -14.5q-20 0 -34 14.5t-14 34.5zM120 122q0 -35 19 -56.5t51 -21.5q70 0 121 80l-2 127q-8 -2 -19 -5l-10 -3q-75 -20 -92.5 -26 t-32.5 -18q-35 -25 -35 -77zM290 600q0 20 14.5 34.5t34.5 14.5t34.5 -14.5t14.5 -34.5t-14.5 -34.5t-35.5 -14.5q-20 0 -34 14.5t-14 34.5z" />
<glyph unicode="&#xe5;" horiz-adv-x="468" d="M37 104q0 46 21.5 79.5t59.5 48.5q36 14 129 33l35 7t26 5q-1 53 -17 80q-28 46 -92 46q-38 0 -75 -20l-26 -65l-26 6v66q13 6 35 19.5t26 15.5q49 29 101 29q82 0 124 -50q28 -33 29 -119l4 -206q1 -37 8.5 -43.5t52.5 -8.5v-30q-57 4 -71 4q-21 0 -72 -5l2 81 q-75 -60 -92 -72q-29 -20 -67 -20q-53 0 -84 32t-31 87zM120 122q0 -35 19 -56.5t51 -21.5q70 0 121 80l-2 127q-8 -2 -19 -5l-10 -3q-75 -20 -92.5 -26t-32.5 -18q-35 -25 -35 -77zM141 611q0 43 27 68.5t73 25.5t73 -25.5t27 -68.5q0 -44 -27 -69.5t-74 -25.5 q-46 0 -72.5 25.5t-26.5 69.5zM178 611q0 -35 16.5 -55.5t45.5 -20.5q30 0 47 20t17 56q0 35 -17 55t-46 20t-46 -20t-17 -55z" />
<glyph unicode="&#xe6;" horiz-adv-x="727" d="M37 103q0 50 27.5 85.5t76.5 49.5q43 11 167 20q-1 75 -26.5 108.5t-80.5 33.5q-34 0 -78 -20l-27 -68l-26 4q-1 32 -1 70q54 27 90 51q24 17 75 17q46 0 75.5 -15t57.5 -53q37 38 70 53t79 15q79 0 127 -45.5t48 -120.5q0 -19 -3 -46l-18 -4q-39 -9 -84 -10l-202 -3 q4 -82 31 -122q47 -67 128 -67q64 0 126 44l10 -9l-21 -36q-75 -50 -157 -50q-107 0 -172 100l-102 -82q-21 -18 -69 -18q-55 0 -88 32.5t-33 85.5zM120 125q0 -35 21 -56t56 -21q56 0 96 48l14 16q3 3 3 4v111q-86 -8 -122 -18q-68 -20 -68 -84zM384 261h220q1 9 1 21 q0 67 -28 104t-79 37q-114 0 -114 -162z" />
<glyph unicode="&#xe7;" horiz-adv-x="435" d="M37 208q0 47 14 90.5t37 66.5q27 27 103 67q43 22 93 22q64 0 115 -27q-12 -48 -15 -125h-27q0 8 -1.5 21t-1.5 16q-1 18 -6 26.5t-17 16.5q-37 23 -85 23q-60 0 -91.5 -40t-31.5 -117q0 -94 44.5 -154t115.5 -60q57 0 105 27l11 -11l-20 -32q-49 -27 -108 -33l-18 -42 q20 3 27 3q31 0 50.5 -17t19.5 -44q0 -35 -30.5 -57.5t-79.5 -22.5q-34 0 -90 14l15 25q36 -11 65 -11q28 0 44 12.5t16 34.5q0 37 -45 37q-12 0 -26 -5l-8 6l30 66q-96 4 -150 63.5t-54 160.5z" />
<glyph unicode="&#xe8;" horiz-adv-x="469" d="M37 212q0 126 75 186q69 56 147 56q80 0 127 -50t47 -135q0 -3 -2 -29q-49 -15 -170 -15h-134q1 -69 25 -113q20 -36 56 -56.5t79 -20.5q63 0 125 43l9 -7l-16 -41q-73 -45 -162 -45q-92 0 -149 63t-57 164zM73 650q0 13 8.5 21t22.5 8q18 0 49 -31l122 -127h-21l-128 76 q-31 19 -42 30t-11 23zM128 262q73 -5 140 -5q32 0 79 3q1 8 1 17q0 71 -28 108.5t-80 37.5q-69 0 -97 -66q-12 -31 -15 -95z" />
<glyph unicode="&#xe9;" horiz-adv-x="469" d="M37 212q0 126 75 186q69 56 147 56q80 0 127 -50t47 -135q0 -3 -2 -29q-49 -15 -170 -15h-134q1 -69 25 -113q20 -36 56 -56.5t79 -20.5q63 0 125 43l9 -7l-16 -41q-73 -45 -162 -45q-92 0 -149 63t-57 164zM128 262q73 -5 140 -5q32 0 79 3q1 8 1 17q0 71 -28 108.5 t-80 37.5q-69 0 -97 -66q-12 -31 -15 -95zM230 521q12 11 62 60t77 75q24 24 39 24q10 0 17 -8.5t7 -20.5q0 -26 -44 -53l-127 -77h-31z" />
<glyph unicode="&#xea;" horiz-adv-x="469" d="M37 212q0 126 75 186q69 56 147 56q80 0 127 -50t47 -135q0 -3 -2 -29q-49 -15 -170 -15h-134q1 -69 25 -113q20 -36 56 -56.5t79 -20.5q63 0 125 43l9 -7l-16 -41q-73 -45 -162 -45q-92 0 -149 63t-57 164zM117 521l121 162h46l109 -162h-17l-116 102l-114 -102h-29z M128 262q73 -5 140 -5q32 0 79 3q1 8 1 17q0 71 -28 108.5t-80 37.5q-69 0 -97 -66q-12 -31 -15 -95z" />
<glyph unicode="&#xeb;" horiz-adv-x="469" d="M37 212q0 126 75 186q69 56 147 56q80 0 127 -50t47 -135q0 -3 -2 -29q-49 -15 -170 -15h-134q1 -69 25 -113q20 -36 56 -56.5t79 -20.5q63 0 125 43l9 -7l-16 -41q-73 -45 -162 -45q-92 0 -149 63t-57 164zM109 600q0 20 14.5 34.5t34.5 14.5t34.5 -14.5t14.5 -34.5 t-14.5 -34.5t-35.5 -14.5q-20 0 -34 14.5t-14 34.5zM128 262q73 -5 140 -5q32 0 79 3q1 8 1 17q0 71 -28 108.5t-80 37.5q-69 0 -97 -66q-12 -31 -15 -95zM303 600q0 20 14.5 34.5t34.5 14.5t34.5 -14.5t14.5 -34.5t-14.5 -34.5t-35.5 -14.5q-20 0 -34 14.5t-14 34.5z" />
<glyph unicode="&#xec;" horiz-adv-x="268" d="M-47 650q0 13 8.5 21t22.5 8q18 0 49 -31l122 -127h-21l-128 76q-31 19 -42 30t-11 23zM25 -2v27l14 1q35 2 44.5 5.5t12.5 15.5q5 27 5 221q0 102 -8 111q-3 4 -24 6q-6 0 -9 0.5t-9.5 0.5t-12.5 1q-7 0 -13 1v27q97 16 153 41l8 -8q-4 -108 -4 -245q0 -138 6 -156 q3 -10 13.5 -14t37.5 -6l16 -1v-29q-83 4 -116 4q-23 0 -114 -3z" />
<glyph unicode="&#xed;" horiz-adv-x="268" d="M25 -2v27l14 1q35 2 44.5 5.5t12.5 15.5q5 27 5 221q0 102 -8 111q-3 4 -24 6q-6 0 -9 0.5t-9.5 0.5t-12.5 1q-7 0 -13 1v27q97 16 153 41l8 -8q-4 -108 -4 -245q0 -138 6 -156q3 -10 13.5 -14t37.5 -6l16 -1v-29q-83 4 -116 4q-23 0 -114 -3zM126 521q12 11 62 60t77 75 q24 24 39 24q10 0 17 -8.5t7 -20.5q0 -26 -44 -53l-127 -77h-31z" />
<glyph unicode="&#xee;" horiz-adv-x="268" d="M2 521l121 162h46l109 -162h-17l-116 102l-114 -102h-29zM24 -2v27l14 1q35 2 44.5 5.5t12.5 15.5q5 27 5 221q0 102 -8 111q-3 4 -24 6q-6 0 -9 0.5t-9.5 0.5t-12.5 1q-7 0 -13 1v27q97 16 153 41l8 -8q-4 -108 -4 -245q0 -138 6 -156q3 -10 13.5 -14t37.5 -6l16 -1v-29 q-83 4 -116 4q-22 0 -114 -3z" />
<glyph unicode="&#xef;" horiz-adv-x="268" d="M21 600q0 20 14.5 34.5t34.5 14.5t34.5 -14.5t14.5 -34.5t-14.5 -34.5t-35.5 -14.5q-20 0 -34 14.5t-14 34.5zM24 -2v27l15 1q35 2 44.5 5.5t12.5 15.5q5 27 5 221q0 102 -8 111q-3 4 -24 6q-6 0 -9 0.5t-9.5 0.5t-12.5 1q-7 0 -13 1v27q95 16 152 41l8 -8 q-4 -109 -4 -245q0 -138 6 -156q3 -10 13.5 -14t37.5 -6l16 -1v-29q-83 4 -116 4q-18 0 -114 -3zM169 600q0 20 14.5 34.5t34.5 14.5t34.5 -14.5t14.5 -34.5t-14.5 -34.5t-35.5 -14.5q-20 0 -34 14.5t-14 34.5z" />
<glyph unicode="&#xf0;" horiz-adv-x="518" d="M30 204q0 114 63.5 182t168.5 68q27 0 53 -6q-63 93 -94 127l-118 -24l-18 30q64 13 113 23q-50 54 -102 97l2 8q7 1 55 9q42 -35 95 -85l17 -16q52 8 111 21l17 -29l-102 -20q77 -77 112 -120q75 -93 75 -223q0 -116 -65 -188.5t-169 -72.5q-100 0 -157 58t-57 161z M122 225q0 -98 34.5 -153t96.5 -55t97.5 56.5t35.5 154.5q0 195 -126 195q-43 0 -74 -24t-47.5 -68.5t-16.5 -105.5z" />
<glyph unicode="&#xf1;" horiz-adv-x="576" d="M23 -4v27q6 1 13.5 1.5t16.5 1.5t14 1q16 2 22.5 6.5t7.5 17.5q4 29 4 178q0 140 -9 152q-6 7 -38 7q-4 0 -31 -1v28q86 10 153 39l10 -7q-3 -37 -3 -52v-28l77 67q8 7 34.5 13.5t48.5 6.5q74 0 116 -45q13 -15 21 -33.5t11.5 -45t3.5 -63.5q0 -13 -1 -74.5t-1 -71.5 q0 -50 2 -65.5t10 -20.5q8 -6 47 -10q6 0 10 -1v-27q-56 4 -83 4q-32 0 -75 -4q8 117 8 235q0 83 -16 111q-26 48 -96 48q-59 0 -96 -40q-24 -25 -24 -73l1 -193q0 -44 10 -51.5t69 -9.5v-27q-102 3 -123 3q-29 0 -114 -4zM138 558q26 95 102 95q33 0 87 -25q47 -21 67 -21 q38 0 58 49h24q-12 -47 -37.5 -72.5t-62.5 -25.5q-20 0 -38.5 5.5t-66.5 25.5q-33 13 -52 13q-37 0 -56 -44h-25z" />
<glyph unicode="&#xf2;" horiz-adv-x="518" d="M37 222q0 102 65.5 167t168.5 65q101 0 156 -57.5t55 -163.5q0 -111 -64.5 -179.5t-168.5 -68.5q-98 0 -155 63.5t-57 173.5zM85 650q0 13 8.5 21t22.5 8q18 0 49 -31l122 -127h-21l-128 76q-31 19 -42 30t-11 23zM125 253q0 -78 30 -147q37 -87 118 -87q57 0 89 47 t32 130q0 95 -36 164q-34 64 -106 64q-60 0 -93.5 -45t-33.5 -126z" />
<glyph unicode="&#xf3;" horiz-adv-x="518" d="M37 222q0 102 65.5 167t168.5 65q101 0 156 -57.5t55 -163.5q0 -111 -64.5 -179.5t-168.5 -68.5q-98 0 -155 63.5t-57 173.5zM125 253q0 -78 30 -147q37 -87 118 -87q57 0 89 47t32 130q0 95 -36 164q-34 64 -106 64q-60 0 -93.5 -45t-33.5 -126zM248 521q12 11 62 60 t77 75q24 24 39 24q10 0 17 -8.5t7 -20.5q0 -26 -44 -53l-127 -77h-31z" />
<glyph unicode="&#xf4;" horiz-adv-x="518" d="M37 222q0 102 65.5 167t168.5 65q101 0 156 -57.5t55 -163.5q0 -111 -64.5 -179.5t-168.5 -68.5q-98 0 -155 63.5t-57 173.5zM125 253q0 -78 30 -147q37 -87 118 -87q57 0 89 47t32 130q0 95 -36 164q-34 64 -106 64q-60 0 -93.5 -45t-33.5 -126zM131 521l121 162h46 l109 -162h-17l-116 102l-114 -102h-29z" />
<glyph unicode="&#xf5;" horiz-adv-x="518" d="M37 222q0 102 65.5 167t168.5 65q101 0 156 -57.5t55 -163.5q0 -111 -64.5 -179.5t-168.5 -68.5q-98 0 -155 63.5t-57 173.5zM114 558q26 95 102 95q33 0 87 -25q47 -21 67 -21q38 0 58 49h24q-25 -98 -100 -98q-32 0 -105 31q-33 13 -52 13q-37 0 -56 -44h-25zM125 253 q0 -78 30 -147q37 -87 118 -87q57 0 89 47t32 130q0 95 -36 164q-34 64 -106 64q-60 0 -93.5 -45t-33.5 -126z" />
<glyph unicode="&#xf6;" horiz-adv-x="518" d="M37 222q0 102 65.5 167t168.5 65q101 0 156 -57.5t55 -163.5q0 -111 -64.5 -179.5t-168.5 -68.5q-98 0 -155 63.5t-57 173.5zM125 253q0 -78 30 -147q37 -87 118 -87q57 0 89 47t32 130q0 95 -36 164q-34 64 -106 64q-60 0 -93.5 -45t-33.5 -126zM127 600q0 20 14.5 34.5 t34.5 14.5t34.5 -14.5t14.5 -34.5t-14.5 -34.5t-35.5 -14.5q-20 0 -34 14.5t-14 34.5zM321 600q0 20 14.5 34.5t34.5 14.5t34.5 -14.5t14.5 -34.5t-14.5 -34.5t-35.5 -14.5q-20 0 -34 14.5t-14 34.5z" />
<glyph unicode="&#xf7;" d="M38 302v59h433v-59h-433zM209 148q0 19 13.5 32.5t32.5 13.5q18 0 31.5 -13.5t13.5 -31.5q0 -19 -13.5 -32.5t-32.5 -13.5q-18 0 -31.5 13.5t-13.5 31.5zM209 516q0 19 13.5 32.5t32.5 13.5q18 0 31.5 -13.5t13.5 -32.5q0 -18 -13.5 -31.5t-31.5 -13.5q-19 0 -32.5 13.5 t-13.5 31.5z" />
<glyph unicode="&#xf8;" horiz-adv-x="520" d="M27 -11q30 30 62 64q-52 69 -52 166q0 104 65 169.5t169 65.5q74 0 129 -34q35 42 51 61l32 -28l-53 -58q53 -59 53 -162q0 -111 -64.5 -179.5t-169.5 -68.5q-79 0 -133 41q-38 -46 -55 -67zM125 252q0 -71 25 -132q14 16 205 246q-36 57 -103 57q-61 0 -94 -45t-33 -126 zM167 84q42 -66 106 -66q58 0 90 47t32 131q0 69 -23 133l-61 -72q-3 -4 -22 -29t-48 -60t-63 -72z" />
<glyph unicode="&#xf9;" horiz-adv-x="550" d="M13 390v28q96 7 154 37l10 -8q-8 -116 -8 -262q0 -76 19.5 -105.5t69.5 -29.5q66 0 109 63q12 18 14.5 40t2.5 112q0 108 -8 119q-6 7 -38 7q-17 0 -36 -1v28q105 13 157 38l9 -7q-7 -187 -7 -334v-36t3 -23t5 -15t12 -7.5t17.5 -5t27.5 -2.5l11 -1v-27q-75 2 -85 2 q-26 0 -72 -3q2 30 5 93l-75 -72q-27 -27 -93 -27q-68 0 -104 39q-28 32 -28 110q0 27 1.5 105.5t1.5 82.5q0 50 -8 56q-10 6 -49 6h-18zM100 650q0 13 8.5 21t22.5 8q18 0 49 -31l122 -127h-21l-128 76q-31 19 -42 30t-11 23z" />
<glyph unicode="&#xfa;" horiz-adv-x="550" d="M13 390v28q96 7 154 37l10 -8q-8 -116 -8 -262q0 -76 19.5 -105.5t69.5 -29.5q66 0 109 63q12 18 14.5 40t2.5 112q0 108 -8 119q-6 7 -38 7q-17 0 -36 -1v28q105 13 157 38l9 -7q-7 -187 -7 -334v-36t3 -23t5 -15t12 -7.5t17.5 -5t27.5 -2.5l11 -1v-27q-75 2 -85 2 q-26 0 -72 -3q2 30 5 93l-75 -72q-27 -27 -93 -27q-68 0 -104 39q-28 32 -28 110q0 27 1.5 105.5t1.5 82.5q0 50 -8 56q-10 6 -49 6h-18zM267 521q12 11 62 60t77 75q24 24 39 24q10 0 17 -8.5t7 -20.5q0 -26 -44 -53l-127 -77h-31z" />
<glyph unicode="&#xfb;" horiz-adv-x="550" d="M13 390v28q96 7 154 37l10 -8q-8 -116 -8 -262q0 -76 19.5 -105.5t69.5 -29.5q66 0 109 63q12 18 14.5 40t2.5 112q0 108 -8 119q-6 7 -38 7q-17 0 -36 -1v28q105 13 157 38l9 -7q-7 -187 -7 -334v-36t3 -23t5 -15t12 -7.5t17.5 -5t27.5 -2.5l11 -1v-27q-75 2 -85 2 q-26 0 -72 -3q2 30 5 93l-75 -72q-27 -27 -93 -27q-68 0 -104 39q-28 32 -28 110q0 27 1.5 105.5t1.5 82.5q0 50 -8 56q-10 6 -49 6h-18zM143 521l121 162h46l109 -162h-17l-116 102l-114 -102h-29z" />
<glyph unicode="&#xfc;" horiz-adv-x="550" d="M13 390v28q96 7 154 37l10 -8q-8 -116 -8 -262q0 -76 19.5 -105.5t69.5 -29.5q66 0 109 63q12 18 14.5 40t2.5 112q0 108 -8 119q-6 7 -38 7q-17 0 -36 -1v28q105 13 157 38l9 -7q-7 -187 -7 -334v-36t3 -23t5 -15t12 -7.5t17.5 -5t27.5 -2.5l11 -1v-27q-75 2 -85 2 q-26 0 -72 -3q2 30 5 93l-75 -72q-27 -27 -93 -27q-68 0 -104 39q-28 32 -28 110q0 27 1.5 105.5t1.5 82.5q0 50 -8 56q-10 6 -49 6h-18zM139 600q0 20 14.5 34.5t34.5 14.5t34.5 -14.5t14.5 -34.5t-14.5 -34.5t-35.5 -14.5q-20 0 -34 14.5t-14 34.5zM333 600 q0 20 14.5 34.5t34.5 14.5t34.5 -14.5t14.5 -34.5t-14.5 -34.5t-35.5 -14.5q-20 0 -34 14.5t-14 34.5z" />
<glyph unicode="&#xfd;" horiz-adv-x="484" d="M-7 414v29q52 -4 96 -4q28 0 127 4v-27l-51 -5q-18 -5 -18 -22q0 -20 45 -135l69 -177l76 192q36 90 36 115q0 15 -10.5 21.5t-38.5 8.5l-11 1v26q53 -2 95 -2q32 0 83 3v-27q-38 -3 -56.5 -27.5t-64.5 -133.5l-138 -329q-42 -100 -68 -141q-16 -25 -41 -40.5t-50 -15.5 q-30 0 -71 18q10 33 20 80h14q22 -35 59 -35q41 0 66 45q16 28 62 136l-135 336q-30 75 -42.5 89t-52.5 17zM251 521q12 11 62 60t77 75q24 24 39 24q10 0 17 -8.5t7 -20.5q0 -26 -44 -53l-127 -77h-31z" />
<glyph unicode="&#xfe;" horiz-adv-x="552" d="M9 -235q59 1 69.5 12t10.5 73q0 562 -0.5 658t-5.5 113q-3 11 -12 14t-34 3q-14 0 -27 -1v29q83 6 149 37l12 -7l-2 -338l73 67q30 29 99 29q79 0 127 -51.5t48 -135.5q0 -45 -15 -90t-39 -73q-28 -32 -124 -88q-42 -25 -80 -25q-49 0 -89 27v-31q0 -135 1.5 -168.5 t7.5 -41.5q9 -10 68 -15v-24q-64 3 -101 3q-39 0 -136 -4v28zM169 99q31 -31 57 -44t60 -13q64 0 105.5 51.5t41.5 131.5q0 76 -38.5 122t-100.5 46q-44 0 -84.5 -31t-40.5 -65v-198z" />
<glyph unicode="&#xff;" horiz-adv-x="484" d="M-7 414v29q52 -4 96 -4q28 0 127 4v-27l-51 -5q-18 -5 -18 -22q0 -20 45 -135l69 -177l76 192q36 90 36 115q0 15 -10.5 21.5t-38.5 8.5l-11 1v26q53 -2 95 -2q32 0 83 3v-27q-38 -3 -56.5 -27.5t-64.5 -133.5l-138 -329q-42 -100 -68 -141q-16 -25 -41 -40.5t-50 -15.5 q-30 0 -71 18q10 33 20 80h14q22 -35 59 -35q41 0 66 45q16 28 62 136l-135 336q-30 75 -42.5 89t-52.5 17zM119 600q0 20 14.5 34.5t34.5 14.5t34.5 -14.5t14.5 -34.5t-14.5 -34.5t-35.5 -14.5q-20 0 -34 14.5t-14 34.5zM313 600q0 20 14.5 34.5t34.5 14.5t34.5 -14.5 t14.5 -34.5t-14.5 -34.5t-35.5 -14.5q-20 0 -34 14.5t-14 34.5z" />
<glyph unicode="&#x152;" horiz-adv-x="945" d="M43 331q0 154 96 251.5t248 97.5q48 0 140 -11q42 -4 75 -4h46q16 0 63 0.5t75 0.5h29l31 1q7 0 16 -1l7 -10q-4 -36 -4 -88q0 -16 1 -48h-32q-3 78 -10 87q-16 20 -158 20q-16 0 -62 -2q-3 -81 -3 -121l1 -143h72q84 0 112 8q11 4 13.5 12t5.5 51q0 9 1 17h32 q-4 -44 -4 -100q0 -55 3 -120h-33q0 65 -10 76q-16 17 -132 17q-20 0 -61 -1v-23l1 -133v-121q68 -4 167 -4q65 0 81 13.5t27 80.5l5 27h31q-11 -79 -11 -146q0 -7 1 -15h-14l-48 -2q-86 -3 -127.5 -2.5t-76 3t-36.5 2.5q-49 -1 -135 -12q-61 -8 -100 -8q-143 0 -233 98 t-90 252zM139 358q0 -147 71.5 -242t182.5 -95q65 0 120 30q4 103 4 239q0 176 -5 315q-63 35 -137 35q-110 0 -173 -75t-63 -207z" />
<glyph unicode="&#x153;" horiz-adv-x="788" d="M37 216q0 110 59.5 174t160.5 64q51 0 89 -16.5t75 -55.5q38 39 74 55.5t83 16.5q79 0 126.5 -47.5t47.5 -125.5q0 -10 -2 -40q-45 -12 -113 -12h-181q3 -78 27 -119q42 -70 128 -70q62 0 117 36l7 -7l-17 -36q-65 -48 -143 -48q-102 0 -161 80q-41 -43 -81 -61.5 t-91 -18.5q-94 0 -149.5 62.5t-55.5 168.5zM122 258q0 -106 39 -172t102 -66q57 0 87 48.5t30 139.5q0 214 -136 214q-58 0 -90 -43.5t-32 -120.5zM456 262h214v18q0 68 -27 106t-76 38q-51 0 -80 -42.5t-31 -119.5z" />
<glyph unicode="&#x178;" horiz-adv-x="623" d="M5 626v27q84 14 120 24q34 -22 76.5 -90.5t145.5 -262.5q15 33 89 164q12 21 99 182h68v-13q-69 -84 -169 -253q-44 -75 -54.5 -102t-10.5 -68q0 -182 11 -194q10 -10 79 -13v-29q-39 2 -98 2q-67 0 -174 -4v30l13 1q50 4 61 7t15 17q7 22 7 148v26q0 12 -1 25v13 q0 14 -7 25l-25 45q-73 129 -113.5 189t-69.5 83t-62 21zM189 820q0 20 14.5 34.5t34.5 14.5t34.5 -14.5t14.5 -34.5t-14.5 -34.5t-35.5 -14.5q-20 0 -34 14.5t-14 34.5zM383 820q0 20 14.5 34.5t34.5 14.5t34.5 -14.5t14.5 -34.5t-14.5 -34.5t-35.5 -14.5q-20 0 -34 14.5 t-14 34.5z" />
<glyph unicode="&#x2c6;" horiz-adv-x="500" d="M112 521l121 162h46l109 -162h-17l-116 102l-114 -102h-29z" />
<glyph unicode="&#x2dc;" horiz-adv-x="500" d="M81 558q26 95 102 95q33 0 87 -25q47 -21 67 -21q38 0 58 49h24q-25 -98 -100 -98q-32 0 -105 31q-32 13 -52 13q-37 0 -56 -44h-25z" />
<glyph unicode="&#x2000;" horiz-adv-x="462" />
<glyph unicode="&#x2001;" horiz-adv-x="925" />
<glyph unicode="&#x2002;" horiz-adv-x="462" />
<glyph unicode="&#x2003;" horiz-adv-x="925" />
<glyph unicode="&#x2004;" horiz-adv-x="308" />
<glyph unicode="&#x2005;" horiz-adv-x="231" />
<glyph unicode="&#x2006;" horiz-adv-x="154" />
<glyph unicode="&#x2007;" horiz-adv-x="154" />
<glyph unicode="&#x2008;" horiz-adv-x="115" />
<glyph unicode="&#x2009;" horiz-adv-x="185" />
<glyph unicode="&#x200a;" horiz-adv-x="51" />
<glyph unicode="&#x2010;" horiz-adv-x="282" d="M0 203q15 37 24 68q72 -3 114 -3q30 0 140 3l4 -7q-16 -35 -23 -68q-65 4 -119 4q-55 0 -134 -4z" />
<glyph unicode="&#x2011;" horiz-adv-x="282" d="M0 203q15 37 24 68q72 -3 114 -3q30 0 140 3l4 -7q-16 -35 -23 -68q-65 4 -119 4q-55 0 -134 -4z" />
<glyph unicode="&#x2012;" horiz-adv-x="282" d="M0 203q15 37 24 68q72 -3 114 -3q30 0 140 3l4 -7q-16 -35 -23 -68q-65 4 -119 4q-55 0 -134 -4z" />
<glyph unicode="&#x2013;" d="M28 206q12 22 24 62q55 -3 181 -3t243 3l4 -7q-13 -25 -24 -62q-67 4 -176 4q-182 0 -246 -4z" />
<glyph unicode="&#x2014;" horiz-adv-x="655" d="M0 206q12 22 24 62q64 -3 222 -3q330 0 405 3l4 -7q-10 -20 -24 -62q-61 4 -250 4q-298 0 -375 -4z" />
<glyph unicode="&#x2018;" horiz-adv-x="261" d="M42 457q53 127 121 215q23 13 43 26l14 -12q-67 -110 -72 -213l-47 -12l-48 -15z" />
<glyph unicode="&#x2019;" horiz-adv-x="261" d="M42 458q67 110 72 213q34 8 47 12l48 15l11 -12q-52 -125 -121 -214l-43 -26z" />
<glyph unicode="&#x201a;" horiz-adv-x="261" d="M15 -121q67 110 72 213q10 3 18.5 5t12.5 2.5t8 2t8 2.5l48 15l11 -12q-52 -125 -121 -214l-43 -26z" />
<glyph unicode="&#x201c;" horiz-adv-x="405" d="M42 457q53 127 121 215q23 13 43 26l14 -12q-67 -110 -72 -213l-47 -12l-48 -15zM186 457q53 127 121 215l43 26l14 -12q-68 -112 -73 -213l-46 -12l-48 -15z" />
<glyph unicode="&#x201d;" horiz-adv-x="405" d="M42 458q67 110 72 213q34 8 47 12l48 15l11 -12q-52 -125 -121 -214l-43 -26zM186 458q67 110 72 213q34 8 47 12l48 15l11 -12q-54 -126 -122 -214l-43 -26z" />
<glyph unicode="&#x201e;" horiz-adv-x="405" d="M15 -121q67 110 72 213q10 3 18.5 5t12.5 2.5t8 2t8 2.5l48 15l11 -12q-52 -125 -121 -214l-43 -26zM159 -121q67 110 72 213q10 3 18.5 5t12.5 2.5t8 2t8 2.5l48 15l11 -12q-54 -126 -122 -214l-43 -26z" />
<glyph unicode="&#x2022;" horiz-adv-x="313" d="M48 348q0 43 31.5 74t75.5 31q45 0 76.5 -31t31.5 -75q0 -45 -32 -77t-76 -32t-75.5 32t-31.5 78z" />
<glyph unicode="&#x2026;" horiz-adv-x="804" d="M79 44q0 23 16.5 39.5t39.5 16.5t39 -16.5t16 -39.5t-16.5 -39t-39.5 -16q-22 0 -38.5 16.5t-16.5 38.5zM347 44q0 23 16.5 39.5t39.5 16.5t39 -16.5t16 -39.5t-16.5 -39t-39.5 -16q-22 0 -38.5 16.5t-16.5 38.5zM615 44q0 23 16.5 39.5t39.5 16.5t39 -16.5t16 -39.5 t-16.5 -39t-39.5 -16q-22 0 -38.5 16.5t-16.5 38.5z" />
<glyph unicode="&#x202f;" horiz-adv-x="185" />
<glyph unicode="&#x2039;" horiz-adv-x="279" d="M46 220v12q65 61 163 166l24 -15q-81 -109 -114 -157q62 -90 114 -156l-24 -16q-101 107 -163 166z" />
<glyph unicode="&#x203a;" horiz-adv-x="279" d="M46 70q69 92 114 157q-57 83 -114 155l24 16q92 -97 163 -165v-13q-65 -61 -163 -166z" />
<glyph unicode="&#x205f;" horiz-adv-x="231" />
<glyph unicode="&#x20ac;" horiz-adv-x="772" d="M48 285l14 32h53v32h-67l14 32h56q17 139 118 219.5t258 80.5q115 0 224 -37q-19 -61 -23 -145h-30l-2 51q-1 32 -15 45q-53 45 -160 45q-118 0 -188.5 -68t-80.5 -191h386l-14 -32h-373q0 -4 2 -32h358l-14 -32h-340q19 -117 100 -184.5t200 -67.5q112 0 191 58l9 -9 q-3 -8 -16 -45q-105 -57 -218 -57q-102 0 -187.5 41.5t-132.5 114.5q-42 66 -52 149h-70z" />
<glyph unicode="&#x2122;" horiz-adv-x="940" d="M16 572q1 24 1 63q0 17 -1 35q102 -4 168 -4q59 0 172 4q-7 -55 -7 -99h-24q0 3 -0.5 6.5t-1 5.5t-0.5 3q0 3 -1 8q-3 25 -6.5 31t-16.5 8q-21 3 -82 3q-3 -80 -3 -221q0 -115 8 -120q5 -3 50 -5v-25q-58 2 -91 2q-36 0 -84 -2v24q43 2 48 5q6 4 7.5 35.5t1.5 140.5v166 q-6 1 -14 1q-68 0 -80 -4q-8 -3 -11 -11t-7 -39q0 -6 -1 -12zM389 264v25q31 0 39 3t12 14q7 24 7 225q0 98 -8 105q-7 5 -50 7v25q48 -3 71 -3q19 0 44 4q32 -72 78 -163l75 -150q12 27 16 33l61 123q29 58 73 157q36 -3 53 -3q16 0 61 3v-25l-16 -1q-25 -1 -30.5 -5 t-6.5 -21q0 -1 -0.5 -23t-0.5 -43v-76q0 -169 7 -178q7 -7 47 -8v-24q-54 2 -76 2q-28 0 -89 -2v24q32 0 40 3q11 1 11 60v238q-129 -268 -156 -331h-15l-159 327q0 -199 4 -267q2 -18 9.5 -24t31.5 -6h13v-24q-30 1 -67 1q-33 0 -79 -2z" />
<glyph unicode="&#xe000;" horiz-adv-x="450" d="M0 0v450h450v-450h-450z" />
</font>
</defs>
</svg>
